<?xml version="1.0" encoding="UTF-8"?>
<svg width="11px" height="11px" viewBox="0 0 11 11" version="1.1" xmlns="http://www.w3.org/2000/svg" xmlns:xlink="http://www.w3.org/1999/xlink">
    <!-- Generator: Sketch 46.2 (44496) - http://www.bohemiancoding.com/sketch -->
    <title>Shape</title>
    <desc>Created with Sketch.</desc>
    <defs></defs>
    <g id="Page-1" stroke="none" stroke-width="1" fill="none" fill-rule="evenodd">
        <g id="dribbble-icon" fill-rule="nonzero" fill="#14151c">
            <path d="M0,5.5 C0,4.502663 0.245674,3.582337 0.737,2.739 C1.228337,1.895663 1.895674,1.228337 2.739,0.737 C3.582337,0.245663 4.502674,0 5.5,0 C6.497337,0 7.417674,0.245663 8.261,0.737 C9.104337,1.228337 9.771674,1.895663 10.263,2.739 C10.754337,3.582337 11,4.502663 11,5.5 C11,6.497337 10.754337,7.417663 10.263,8.261 C9.771674,9.104337 9.104337,9.771663 8.261,10.263 C7.417674,10.754337 6.497337,11 5.5,11 C4.502674,11 3.582337,10.754337 2.739,10.263 C1.895674,9.771663 1.228337,9.104337 0.737,8.261 C0.245674,7.417663 0,6.497337 0,5.5 Z M0.913,5.5 C0.913,6.644 1.298,7.652337 2.068,8.525 C2.42,7.835663 2.977337,7.179337 3.74,6.556 C4.502674,5.932663 5.247,5.540337 5.973,5.379 C5.863,5.122337 5.756674,4.891337 5.654,4.686 C4.392674,5.089337 3.028674,5.291 1.562,5.291 C1.276,5.291 1.063337,5.287337 0.924,5.28 C0.924,5.309337 0.922174,5.346 0.9185,5.39 C0.914837,5.434 0.913,5.470663 0.913,5.5 Z M1.056,4.367 C1.217337,4.381663 1.455674,4.389 1.771,4.389 C2.995674,4.389 4.158,4.224 5.258,3.894 C4.700674,2.904 4.088337,2.079 3.421,1.419 C2.841674,1.712337 2.344837,2.119337 1.9305,2.64 C1.516174,3.160663 1.224674,3.736337 1.056,4.367 Z M2.695,9.119 C3.523674,9.764337 4.458674,10.087 5.5,10.087 C6.042674,10.087 6.581674,9.984337 7.117,9.779 C6.970337,8.525 6.684337,7.311337 6.259,6.138 C5.584337,6.284663 4.904174,6.655 4.2185,7.249 C3.532837,7.843 3.025,8.466337 2.695,9.119 Z M4.378,1.067 C5.023337,1.734337 5.621,2.566663 6.171,3.564 C7.168337,3.146 7.92,2.614337 8.426,1.969 C7.575337,1.265 6.6,0.913 5.5,0.913 C5.126,0.913 4.752,0.964337 4.378,1.067 Z M6.567,4.345 C6.677,4.579663 6.801674,4.876663 6.941,5.236 C7.483674,5.184663 8.074,5.159 8.712,5.159 C9.166674,5.159 9.617674,5.17 10.065,5.192 C10.006337,4.194663 9.647,3.307337 8.987,2.53 C8.510337,3.241337 7.703674,3.846337 6.567,4.345 Z M7.216,6.006 C7.59,7.091337 7.843,8.206 7.975,9.35 C8.554337,8.976 9.027337,8.495663 9.394,7.909 C9.760674,7.322337 9.980674,6.688 10.054,6.006 C9.518674,5.969337 9.031,5.951 8.591,5.951 C8.187674,5.951 7.729337,5.969337 7.216,6.006 Z" id="Shape"></path>
        </g>
    </g>
</svg>