<?xml version="1.0" encoding="UTF-8"?>
<svg width="11px" height="11px" viewBox="0 0 11 11" version="1.1" xmlns="http://www.w3.org/2000/svg" xmlns:xlink="http://www.w3.org/1999/xlink">
    <!-- Generator: Sketch 46.2 (44496) - http://www.bohemiancoding.com/sketch -->
    <title>Shape</title>
    <desc>Created with Sketch.</desc>
    <defs></defs>
    <g id="Page-1" stroke="none" stroke-width="1" fill="none" fill-rule="evenodd">
        <g id="Desktop-Copy-25" transform="translate(-706.000000, -1412.000000)" fill-rule="nonzero" fill="#14151c">
            <g id="Group-4" transform="translate(330.000000, 1407.000000)">
                <g id="g" transform="translate(376.000000, 5.000000)">
                    <path d="M5.43333333,0 C2.43333333,0 0,2.43333333 0,5.43333333 C0,7.83333333 1.56666667,9.86666667 3.7,10.6 C3.96666667,10.6333333 4.06666667,10.4666667 4.06666667,10.3333333 L4.06666667,9.4 C2.56666667,9.73333333 2.23333333,8.66666667 2.23333333,8.66666667 C2,8.06666667 1.66666667,7.9 1.66666667,7.9 C1.16666667,7.56666667 1.7,7.56666667 1.7,7.56666667 C2.23333333,7.6 2.53333333,8.13333333 2.53333333,8.13333333 C3.03333333,8.96666667 3.8,8.73333333 4.1,8.6 C4.13333333,8.23333333 4.3,8 4.43333333,7.86666667 C3.23333333,7.73333333 1.96666667,7.26666667 1.96666667,5.16666667 C1.96666667,4.56666667 2.16666667,4.1 2.53333333,3.7 C2.46666667,3.56666667 2.3,3 2.6,2.26666667 C2.6,2.26666667 3.06666667,2.13333333 4.1,2.83333333 C4.53333333,2.7 5,2.66666667 5.46666667,2.66666667 C5.93333333,2.66666667 6.4,2.73333333 6.83333333,2.83333333 C7.86666667,2.13333333 8.33333333,2.26666667 8.33333333,2.26666667 C8.63333333,3 8.43333333,3.56666667 8.4,3.7 C8.73333333,4.06666667 8.96666667,4.56666667 8.96666667,5.16666667 C8.96666667,7.26666667 7.7,7.7 6.5,7.83333333 C6.7,8 6.86666667,8.33333333 6.86666667,8.83333333 L6.86666667,10.3333333 C6.86666667,10.4666667 6.96666667,10.6333333 7.23333333,10.6 C9.4,9.86666667 10.9333333,7.83333333 10.9333333,5.43333333 C10.8666667,2.43333333 8.43333333,0 5.43333333,0 L5.43333333,0 Z" id="Shape"></path>
                </g>
            </g>
        </g>
    </g>
</svg>