<?xml version="1.0" encoding="UTF-8"?>
<svg width="24px" height="24px" viewBox="0 0 24 24" version="1.1" xmlns="http://www.w3.org/2000/svg" xmlns:xlink="http://www.w3.org/1999/xlink">
    <!-- Generator: Sketch 46.2 (44496) - http://www.bohemiancoding.com/sketch -->
    <title>Shape</title>
    <desc>Created with Sketch.</desc>
    <defs>
        <path d="M10,1.66666667 C14.595,1.66666667 18.3333333,5.405 18.3333333,10 C18.3333333,14.595 14.595,18.3333333 10,18.3333333 C5.405,18.3333333 1.66666667,14.595 1.66666667,10 C1.66666667,5.405 5.405,1.66666667 10,1.66666667 Z M10,0 C4.4775,0 0,4.4775 0,10 C0,15.5225 4.4775,20 10,20 C15.5225,20 20,15.5225 20,10 C20,4.4775 15.5225,0 10,0 Z M11.34,7.89666667 L10,3.33333333 L8.6575,7.8975 C8.3,8.12666667 8.01166667,8.44583333 7.80833333,8.82 L3.33333333,10 L7.80833333,11.18 C8.01083333,11.5541667 8.29916667,11.8741667 8.6575,12.1025 L10,16.6666667 L11.3483333,12.1008333 C11.705,11.8716667 11.9908333,11.5516667 12.1933333,11.1766667 L16.6666667,10 L12.1933333,8.8225 C11.99,8.44583333 11.7,8.12583333 11.34,7.89666667 Z M10,11.25 C9.31,11.25 8.75,10.69 8.75,10 C8.75,9.31 9.31,8.75 10,8.75 C10.69,8.75 11.25,9.31 11.25,10 C11.25,10.69 10.69,11.25 10,11.25 Z M14.375,14.375 L12.2308333,13.0091667 C12.5275,12.7891667 12.7891667,12.5266667 13.01,12.2308333 L14.375,14.375 Z M12.1741667,6.94916667 L14.3741667,5.62583333 L13.0508333,7.825 C12.8091667,7.48583333 12.5133333,7.19083333 12.1741667,6.94916667 L12.1741667,6.94916667 Z M7.82833333,13.0533333 L5.625,14.375 L6.94916667,12.1741667 C7.19083333,12.5141667 7.4875,12.8108333 7.82833333,13.0533333 L7.82833333,13.0533333 Z M6.99083333,7.77 L5.62583333,5.62583333 L7.77,6.99083333 C7.4725,7.21083333 7.21,7.47333333 6.99083333,7.77 Z" id="path-1"></path>
        <filter x="-20.0%" y="-10.0%" width="140.0%" height="140.0%" filterUnits="objectBoundingBox" id="filter-2">
            <feOffset dx="0" dy="2" in="SourceAlpha" result="shadowOffsetOuter1"></feOffset>
            <feGaussianBlur stdDeviation="1" in="shadowOffsetOuter1" result="shadowBlurOuter1"></feGaussianBlur>
            <feComposite in="shadowBlurOuter1" in2="SourceAlpha" operator="out" result="shadowBlurOuter1"></feComposite>
            <feColorMatrix values="0 0 0 0 0   0 0 0 0 0   0 0 0 0 0  0 0 0 0.15 0" type="matrix" in="shadowBlurOuter1"></feColorMatrix>
        </filter>
    </defs>
    <g id="Page-1" stroke="none" stroke-width="1" fill="none" fill-rule="evenodd">
        <g id="iconmonstr-map-1" transform="translate(2.000000, 0.000000)" fill-rule="nonzero">
            <g id="iconmonstr-compass-7">
                <g id="Shape">
                    <use fill="black" fill-opacity="1" filter="url(#filter-2)" xlink:href="#path-1"></use>
                    <use fill-opacity="0.75" fill="#FFFFFF" fill-rule="evenodd" xlink:href="#path-1"></use>
                </g>
            </g>
        </g>
    </g>
</svg>