<?xml version="1.0" encoding="UTF-8"?>
<svg width="11px" height="12px" viewBox="0 0 11 12" version="1.1" xmlns="http://www.w3.org/2000/svg" xmlns:xlink="http://www.w3.org/1999/xlink">
    <!-- Generator: Sketch 46.2 (44496) - http://www.bohemiancoding.com/sketch -->
    <title>Combined Shape</title>
    <desc>Created with Sketch.</desc>
    <defs></defs>
    <g id="Page-1" stroke="none" stroke-width="1" fill="none" fill-rule="evenodd">
        <g id="Desktop-Copy-25" transform="translate(-796.000000, -1411.000000)" fill-rule="nonzero" fill="#111111">
            <g id="Group-4" transform="translate(330.000000, 1407.000000)">
                <g id="sprites" transform="translate(466.000000, 4.000000)">
                    <path d="M8.40432435,10.6670271 L8.40432435,7.75783786 L9.69729733,7.75783786 L9.69729733,11.96 L0,11.96 L0,7.75783786 L1.29297298,7.75783786 L1.29297298,10.6670271 L8.40432435,10.6670271 Z M7.46368651,8.40109192 L2.26270271,7.43459462 L2.48250812,6.36401299 L7.68801732,7.44752435 L7.46368651,8.40109192 Z M2.94151352,4.91329731 L3.39405406,3.94356758 L8.24270273,6.20627029 L7.79016219,7.17600002 L2.94151352,4.91329731 Z M4.29913515,2.52129731 L4.97794596,1.71318919 L9.08313516,5.13956758 L8.40432435,5.94767569 L4.29913515,2.52129731 Z M6.94972975,0 L10.1498379,4.29913515 L9.27708111,4.94562164 L6.07697299,0.646486489 L6.94972975,0 Z M2.26270271,9.69729733 L2.26270271,8.7275676 L7.43459462,8.7275676 L7.43459462,9.69729733 L2.26270271,9.69729733 Z" id="Combined-Shape"></path>
                </g>
            </g>
        </g>
    </g>
</svg>