<?xml version="1.0" encoding="UTF-8"?>
<svg width="11px" height="9px" viewBox="0 0 11 9" version="1.1" xmlns="http://www.w3.org/2000/svg" xmlns:xlink="http://www.w3.org/1999/xlink">
    <!-- Generator: Sketch 46.2 (44496) - http://www.bohemiancoding.com/sketch -->
    <title>Shape</title>
    <desc>Created with Sketch.</desc>
    <defs></defs>
    <g id="Page-1" stroke="none" stroke-width="1" fill="none" fill-rule="evenodd">
        <g id="Desktop-Copy-25" transform="translate(-751.000000, -1413.000000)" fill="#111111">
            <g id="Group-4" transform="translate(330.000000, 1407.000000)">
                <g id="t" transform="translate(421.000000, 6.000000)">
                    <path d="M11,1.03655121 L9.969,2.07310243 L9.969,2.24535729 C9.969,2.43473691 9.939,2.61605782 9.894,2.79133471 C9.87,4.21671854 9.419,6.10749272 7.562,7.59936089 C3.913,10.534745 0,7.94487796 0,7.94487796 C3.094,7.94487796 3.094,6.90832674 3.094,6.90832674 C2.406,6.90832674 1.031,5.5272658 1.031,5.5272658 C1.375,5.87177553 2.063,5.5272658 2.063,5.5272658 C0.343,4.49071459 0.343,3.45416337 0.343,3.45416337 C0.687,3.79968044 1.375,3.45416337 1.375,3.45416337 C-0.344,2.07310243 0.687,0.345517071 0.687,0.345517071 C1.031,2.07310243 5.5,2.76312923 5.5,2.76312923 L5.557,2.73492376 C5.5201983,2.51624088 5.50113531,2.29490236 5.5,2.07310243 C5.5,0.833068857 6.5,0 7.734,0 C8.414,0 9.014,0.311267565 9.424,0.791767982 L9.625,0.691034142 L10.656,0 L9.97,1.38206828 L11,1.03655121 Z" id="Shape"></path>
                </g>
            </g>
        </g>
    </g>
</svg>