<?xml version="1.0" encoding="UTF-8"?>
<svg width="14px" height="8px" viewBox="0 0 14 8" version="1.1" xmlns="http://www.w3.org/2000/svg" xmlns:xlink="http://www.w3.org/1999/xlink">
    <!-- Generator: Sketch 46.2 (44496) - http://www.bohemiancoding.com/sketch -->
    <title>iconmonstr-eye-4</title>
    <desc>Created with Sketch.</desc>
    <defs></defs>
    <g id="Page-1" stroke="none" stroke-width="1" fill="none" fill-rule="evenodd">
        <g id="Desktop-Copy-25" transform="translate(-141.000000, -1205.000000)" fill-rule="nonzero" fill="#FFFFFF">
            <g id="Group-2" transform="translate(-62.000000, 398.000000)">
                <g id="Group-5" transform="translate(181.000000, 795.000000)">
                    <g id="Group-6" transform="translate(22.000000, 8.000000)">
                        <g id="iconmonstr-eye-4" transform="translate(0.000000, 4.000000)">
                            <path d="M7.00875,1.14285714 C9.78016667,1.14285714 11.7121667,2.864 12.55275,3.792 C11.7355,4.84171429 9.8035,6.85714286 7.00875,6.85714286 C4.43041667,6.85714286 2.38291667,4.83657143 1.47991667,3.76742857 C2.35083333,2.82628571 4.28983333,1.14285714 7.00875,1.14285714 Z M7.00875,0 C2.5935,0 0,3.74342857 0,3.74342857 C0,3.74342857 2.82041667,8 7.00875,8 C11.5196667,8 14,3.74342857 14,3.74342857 C14,3.74342857 11.4969167,0 7.00875,0 Z M7,2.85714286 C7.64341667,2.85714286 8.16666667,3.36971429 8.16666667,4 C8.16666667,4.63028571 7.64341667,5.14285714 7,5.14285714 C6.35658333,5.14285714 5.83333333,4.63028571 5.83333333,4 C5.83333333,3.36971429 6.35658333,2.85714286 7,2.85714286 Z M7,1.71428571 C5.71141667,1.71428571 4.66666667,2.73828571 4.66666667,4 C4.66666667,5.26228571 5.71141667,6.28571429 7,6.28571429 C8.28858333,6.28571429 9.33333333,5.26228571 9.33333333,4 C9.33333333,2.73828571 8.28858333,1.71428571 7,1.71428571 Z" id="Shape"></path>
                        </g>
                    </g>
                </g>
            </g>
        </g>
    </g>
</svg>