<svg xmlns="http://www.w3.org/2000/svg" width="48" height="48" fill="none"><path fill="#000" d="M0 16c0-5.6 0-8.4 1.09-10.54a10 10 0 0 1 4.37-4.37C7.6 0 10.4 0 16 0h16c5.6 0 8.4 0 10.54 1.09a10 10 0 0 1 4.37 4.37C48 7.6 48 10.4 48 16v16c0 5.6 0 8.4-1.09 10.54a10.001 10.001 0 0 1-4.37 4.37C40.4 48 37.6 48 32 48H16c-5.6 0-8.4 0-10.54-1.09a10 10 0 0 1-4.37-4.37C0 40.4 0 37.6 0 32V16Z"/><path fill="#fff" fill-rule="evenodd" d="m34.476 11.848 1.676 1.676-9.29 9.29H40v2.371H26.861l9.291 9.291-1.676 1.676-9.29-9.29V40h-2.371V26.861l-9.291 9.291-1.676-1.676 9.29-9.29H8v-2.373h13.139l-9.291-9.289 1.676-1.676 9.29 9.29V8h2.371v13.139l9.291-9.291ZM23.509 22.815l-.693.694v.982l.693.693h.982l.693-.693v-.982l-.693-.693h-.982v-.001Z" clip-rule="evenodd"/></svg>