<?xml version="1.0" encoding="UTF-8"?>
<svg width="700px" height="388px" viewBox="0 0 700 388" version="1.1" xmlns="http://www.w3.org/2000/svg" xmlns:xlink="http://www.w3.org/1999/xlink">
    <!-- Generator: Sketch 47.1 (45422) - http://www.bohemiancoding.com/sketch -->
    <title>Artboard</title>
    <desc>Created with Sketch.</desc>
    <defs>
        <polygon id="path-1" points="8.70069565 7.00608696 8.70069565 0.547826087 0.304347826 0.547826087 0.304347826 7.00608696"></polygon>
        <polygon id="path-3" points="21.0712174 0.126 0.0955652174 0.126 0.0955652174 27.3517391 21.0712174 27.3517391"></polygon>
        <polygon id="path-5" points="20.9756522 0.126 0 0.126 0 27.3517391 20.9756522 27.3517391"></polygon>
        <linearGradient x1="-3.04676094e-14%" y1="50.0580829%" x2="99.9946401%" y2="50.0580829%" id="linearGradient-7">
            <stop stop-color="#4E9414" offset="0%"></stop>
            <stop stop-color="#5CA51C" offset="6%"></stop>
            <stop stop-color="#67B022" offset="13%"></stop>
            <stop stop-color="#6CB725" offset="23%"></stop>
            <stop stop-color="#6EB926" offset="50%"></stop>
        </linearGradient>
        <polygon id="path-8" points="0.571909091 18.8889545 19.6658182 18.8889545 19.6658182 0.6885 0.571909091 0.6885"></polygon>
        <polygon id="path-10" points="0.505636364 24.8768182 23.5759091 24.8768182 23.5759091 0.0822272727 0.505636364 0.0822272727"></polygon>
        <polygon id="path-12" points="0 24.8768182 39.1868182 24.8768182 39.1868182 0.0822272727 0 0.0822272727"></polygon>
    </defs>
    <g id="Page-1" stroke="none" stroke-width="1" fill="none" fill-rule="evenodd">
        <g id="Artboard">
            <rect id="Rectangle" fill="#F8F8F9" x="0" y="0" width="340" height="116"></rect>
            <rect id="Rectangle-Copy" fill="#F8F8F9" x="360" y="0" width="340" height="116"></rect>
            <rect id="Rectangle-Copy-3" fill="#F8F8F9" x="0" y="136" width="340" height="116"></rect>
            <rect id="Rectangle-Copy-2" fill="#F8F8F9" x="360" y="136" width="340" height="116"></rect>
            <rect id="Rectangle-Copy-5" fill="#F8F8F9" x="0" y="272" width="340" height="116"></rect>
            <rect id="Rectangle-Copy-4" fill="#F8F8F9" x="360" y="272" width="340" height="116"></rect>
            <g id="clients" transform="translate(65.000000, 42.000000)">
                <g id="SeatGeek_Blue" transform="translate(22.000000, 0.000000)" fill-rule="nonzero" fill="#3473DE">
                    <g id="Group" transform="translate(49.000000, 6.000000)">
                        <path d="M22.9014177,5.07739726 C18.3296005,5.07739726 15.7473704,8.90342466 15.7473704,13.0315068 C15.7473704,14.8726027 16.1424657,20.9712329 23.8468243,20.9712329 C26.1186224,20.9712329 27.656672,20.3527397 28.7855158,19.719863 C28.7855158,18.7705479 28.7855158,16.2678082 28.7855158,16.2678082 C28.7855158,16.2678082 26.9370341,17.7493151 24.2419196,17.7493151 C21.2363731,17.7493151 19.7547657,16.0232877 19.5148864,14.1534247 L29.5192642,14.1534247 C29.5192642,14.1534247 29.5192642,13.3623288 29.5192642,12.1972603 C29.5192642,11.0465753 29.5474853,5.07739726 22.9014177,5.07739726 Z M19.528997,11.1184932 C19.7406552,9.78082192 20.7283935,8.27054795 23.0707443,8.27054795 C25.0744419,8.27054795 25.8364115,9.66575342 26.005738,11.1184932 L19.528997,11.1184932 Z" id="XMLID_30_"></path>
                        <path d="M42.7690678,10.7589041 C42.7690678,5.32191781 38.9451096,5.0630137 37.0401857,5.0630137 C34.1757447,5.0630137 31.6499568,6.31438356 31.6499568,6.31438356 L31.6499568,9.75205479 C31.6499568,9.75205479 33.9076443,8.25616438 36.1230002,8.25616438 C38.9733307,8.25616438 39.086215,9.79520548 39.086215,11.5931507 C33.9076443,11.3917808 30.7327712,12.4705479 30.7327712,16.3972603 C30.7327712,20.309589 34.6555033,20.9712329 37.5763865,20.9712329 C39.8058529,20.9712329 42.7972889,20.410274 42.7972889,20.410274 C42.7972889,20.410274 42.7690678,15.75 42.7690678,10.7589041 Z M39.0297728,17.8068493 C39.0297728,17.8068493 34.4579556,18.7130137 34.4579556,16.0952055 C34.4579556,13.880137 37.872708,14.1678082 39.0297728,14.239726 L39.0297728,17.8068493 Z" id="XMLID_25_"></path>
                        <path d="M50.7697479,17.7780822 C49.0623717,17.7780822 48.6108342,16.8575342 48.6108342,15.4767123 C48.6108342,15.4767123 48.6108342,11.8376712 48.6108342,8.60136986 L52.7875561,8.60136986 L52.7875561,5.39383562 L48.6108342,5.39383562 C48.6108342,3.95547945 48.6108342,2.6609589 48.6108342,1.66849315 L44.8715393,1.66849315 L44.8715393,14.9445205 C44.8715393,17.2027397 44.6739916,20.9856164 49.7961202,20.9856164 C52.1949131,20.9856164 53.351978,20.2520548 53.351978,20.2520548 L53.3660885,16.9582192 C53.3801991,16.9582192 51.9691444,17.7780822 50.7697479,17.7780822 Z" id="XMLID_23_"></path>
                        <path d="M13.1651403,5.13493151 L13.1651403,1.26575342 C13.1651403,1.26575342 10.9215633,0.0143835616 7.28104222,0.0143835616 C3.64052111,0.0143835616 0.0564421878,1.68287671 0.0564421878,5.88287671 C0.0564421878,9.33493151 2.37057189,10.5431507 4.28960627,11.2479452 C6.2227512,11.9527397 7.97245902,12.6143836 8.90375512,13.1178082 C9.83505122,13.6212329 10.4135836,14.1246575 10.4135836,15.289726 C10.4135836,16.440411 9.76449848,17.5910959 6.60373597,17.5910959 C3.44297345,17.5910959 0.296321486,15.4623288 0.296321486,15.4623288 L0.296321486,19.360274 C0.296321486,19.360274 2.75155665,21 6.60373597,21 C10.4559153,21 14.3080946,19.5184932 14.3080946,14.9876712 C14.3080946,11.1472603 10.9074528,9.76643836 9.9197145,9.34931507 C9.10130278,8.9609589 6.05342464,7.9109589 5.50311331,7.62328767 C4.71292268,7.20616438 3.83806877,6.74589041 3.92273205,5.49452055 C4.00739533,4.32945205 4.8681387,3.39452055 7.09760511,3.39452055 C10.3006993,3.39452055 13.1651403,5.13493151 13.1651403,5.13493151 Z" id="XMLID_22_"></path>
                        <g id="XMLID_17_" transform="translate(103.853625, 0.287671)">
                            <polygon id="XMLID_20_" points="3.75340549 20.3527397 3.75340549 0 0.0141105469 0 0.0141105469 20.3527397"></polygon>
                            <polygon id="XMLID_19_" points="9.31296098 20.3527397 3.37242072 12.1109589 9.18596606 5.13493151 13.5461251 5.13493151 7.6055848 12.1109589 13.6872305 20.3527397"></polygon>
                        </g>
                        <path d="M79.8374746,5.07739726 C75.2656574,5.07739726 72.6834273,8.90342466 72.6834273,13.0315068 C72.6834273,14.8726027 73.0785226,20.9712329 80.7828812,20.9712329 C83.0546793,20.9712329 84.5927289,20.3527397 85.7215727,19.719863 C85.7215727,18.7705479 85.7215727,16.2678082 85.7215727,16.2678082 C85.7215727,16.2678082 83.873091,17.7493151 81.1779766,17.7493151 C78.1724301,17.7493151 76.6908226,16.0232877 76.4509433,14.1534247 L86.4553211,14.1534247 C86.4553211,14.1534247 86.4553211,13.3623288 86.4553211,12.1972603 C86.4553211,11.0465753 86.4835422,5.07739726 79.8374746,5.07739726 Z M76.4650539,11.1184932 C76.6767121,9.78082192 77.6644504,8.27054795 80.0068012,8.27054795 C82.0104988,8.27054795 82.7724684,9.66575342 82.9417949,11.1184932 L76.4650539,11.1184932 Z" id="XMLID_5_"></path>
                        <path d="M95.274413,5.07739726 C90.7025957,5.07739726 88.1203657,8.90342466 88.1203657,13.0315068 C88.1203657,14.8726027 88.515461,20.9712329 96.2198196,20.9712329 C98.4916177,20.9712329 100.029667,20.3527397 101.158511,19.719863 C101.158511,18.7705479 101.158511,16.2678082 101.158511,16.2678082 C101.158511,16.2678082 99.3100294,17.7493151 96.6149149,17.7493151 C93.6093684,17.7493151 92.127761,16.0232877 91.8878817,14.1534247 L101.878149,14.1534247 C101.878149,14.1534247 101.878149,13.3623288 101.878149,12.1972603 C101.878149,11.0465753 101.90637,5.07739726 95.274413,5.07739726 Z M91.8878817,11.1184932 C92.0995399,9.78082192 93.0872782,8.27054795 95.429629,8.27054795 C97.4333266,8.27054795 98.1952962,9.66575342 98.3646227,11.1184932 L91.8878817,11.1184932 Z" id="XMLID_2_"></path>
                        <path d="M70.199971,5.13493151 L70.199971,1.26575342 C70.199971,1.26575342 68.3232683,0.0143835616 64.4005362,0.0143835616 C59.1796339,0.0143835616 54.2691635,3.86917808 54.2691635,10.6869863 C54.2691635,17.2171233 58.3330011,20.9856164 64.471089,20.9856164 C68.7042531,20.9856164 70.6656191,19.7486301 70.6656191,19.7486301 L70.6656191,11.3486301 C70.6656191,10.3273973 69.8472074,9.49315068 68.8453585,9.49315068 L62.8907077,9.49315068 L62.8907077,12.8876712 L66.9263241,12.8876712 L66.9263241,17.2458904 C66.9263241,17.2458904 65.9103648,17.6054795 64.3582046,17.6054795 C60.2802565,17.6054795 58.1636745,14.3979452 58.1636745,10.7157534 C58.1636745,6.80342466 60.576578,3.42328767 64.4851995,3.42328767 C67.2790878,3.39452055 68.6619214,4.17123288 70.199971,5.13493151 Z" id="XMLID_1_"></path>
                    </g>
                    <g id="Group">
                        <path d="M7.252,3.45263158 C7.252,3.45263158 12.502,0 21,0 C29.498,0 34.748,3.45263158 34.748,3.45263158 L31.304,21.754386 L10.682,21.754386 L7.252,3.45263158 Z" id="XMLID_36_"></path>
                        <path d="M7.252,25.7964912 C7.252,25.7964912 12.6,28.2526316 21,28.2526316 C29.4,28.2526316 34.748,25.7964912 34.748,25.7964912 L34.748,29.6982456 C34.748,29.6982456 29.302,32 21,32 C12.698,32 7.252,29.6982456 7.252,29.6982456 L7.252,25.7964912 Z" id="XMLID_35_"></path>
                        <path d="M6.944,23.2701754 L6.944,16.7578947 C6.944,15.7052632 6.09,14.8491228 5.04,14.8491228 L0.07,14.8491228 L0.07,18.3017544 L3.276,18.3017544 L3.276,23.2842105 L6.944,23.2842105 L6.944,23.2701754 Z" id="XMLID_34_"></path>
                        <path d="M35.056,23.2701754 L35.056,16.7578947 C35.056,15.7052632 35.91,14.8491228 36.96,14.8491228 L41.93,14.8491228 L41.93,18.3017544 L38.724,18.3017544 L38.724,23.2842105 L35.056,23.2842105 L35.056,23.2701754 Z" id="XMLID_33_"></path>
                    </g>
                </g>
                <g id="maxcdn-stackpath-logo" transform="translate(397.000000, 130.000000)" fill-rule="nonzero">
                    <g id="Group" transform="translate(2.000000, 0.000000)">
                        <path d="M128.031268,27.9 C127.675516,29.5506494 126.015339,30.8792208 124.355162,30.8792208 L2.76696165,30.8792208 C1.10678466,30.8792208 0.0790560472,29.5506494 0.43480826,27.9 L6.08731563,2.97922078 C6.48259587,1.36883117 8.10324484,-1.77635684e-15 9.76342183,-1.77635684e-15 L131.312094,-1.77635684e-15 C132.972271,-1.77635684e-15 134,1.32857143 133.644248,2.97922078 L128.031268,27.9 Z" id="Shape" fill="#FF5B02"></path>
                        <g id="Shape" transform="translate(10.672566, 5.636364)" fill="#FFFFFF">
                            <path d="M44.3899705,6.24025974 L41.6625369,19.2038961 L29.1321534,19.2038961 C27.7486726,19.2038961 26.6814159,18.6402597 25.8908555,17.512987 C25.139823,16.3454545 24.9026549,15.0168831 25.2188791,13.5675325 C25.5351032,12.0779221 26.2861357,10.7493506 27.5115044,9.62207792 C28.7368732,8.49480519 30.0412979,7.89090909 31.4643068,7.89090909 L39.5675516,7.89090909 L39.8837758,6.48181818 C39.9628319,6.07922078 39.8837758,5.75714286 39.6861357,5.47532468 C39.4884956,5.19350649 39.2117994,5.07272727 38.8560472,5.07272727 L28.0648968,5.07272727 L29.0135693,0.362337662 L40.0023599,0.362337662 C41.5044248,0.362337662 42.6902655,0.925974026 43.520354,2.09350649 C44.4690265,3.26103896 44.7061947,4.62987013 44.3899705,6.24025974 L44.3899705,6.24025974 Z M31.3852507,11.6753247 C30.9899705,11.6753247 30.6737463,11.8363636 30.3575221,12.1181818 C30.0412979,12.4 29.8436578,12.7220779 29.7646018,13.0844156 C29.7250737,13.2857143 29.7250737,13.4467532 29.7646018,13.6480519 C29.8041298,13.8090909 29.8831858,13.9701299 29.9622419,14.0909091 C30.0412979,14.2116883 30.159882,14.3324675 30.3179941,14.412987 C30.4761062,14.4935065 30.6342183,14.5337662 30.7923304,14.5337662 L38.2631268,14.5337662 L38.8560472,11.7155844 L31.3852507,11.6753247 L31.3852507,11.6753247 Z M55.260177,9.78311688 L59.2525074,19.2038961 L53.639528,19.2038961 L51.6235988,13.6883117 L47.2755162,19.2038961 L41.6625369,19.2038961 L49.6076696,9.78311688 L45.5758112,0.362337662 L51.1887906,0.362337662 L53.2047198,5.83766234 L57.5132743,0.362337662 L63.1262537,0.362337662 L55.260177,9.78311688 L55.260177,9.78311688 Z"></path>
                            <path d="M75.4985251,5.07272727 L67.1581121,5.07272727 C66.7233038,5.07272727 66.3675516,5.23376623 65.9722714,5.55584416 C65.6165192,5.87792208 65.379351,6.28051948 65.260767,6.72337662 L63.9563422,12.8428571 C63.8377581,13.2857143 63.9168142,13.6883117 64.1539823,14.0103896 C64.3911504,14.3324675 64.7469027,14.4935065 65.1421829,14.4935065 L74.5893805,14.4935065 L73.6011799,19.2038961 L63.719174,19.2038961 C62.2171091,19.2038961 61.0312684,18.6402597 60.2011799,17.4727273 C59.3710914,16.3051948 59.0943953,14.8961039 59.4501475,13.2857143 L60.9522124,6.2 C61.2684366,4.58961039 62.0985251,3.22077922 63.4424779,2.05324675 C64.7469027,0.885714286 66.1699115,0.322077922 67.6719764,0.322077922 L76.4471976,0.322077922 L75.4985251,5.07272727 L75.4985251,5.07272727 Z"></path>
                            <path d="M94.9463127,9.7025974 C95.460177,7.32727273 94.9463127,4.91168831 93.5233038,3.14025974 C92.100295,1.36883117 89.9262537,0.362337662 87.5545723,0.362337662 L79.1351032,0.322077922 L75.1823009,19.2038961 L85.2619469,19.2038961 C89.6890855,18.8818182 93.8,15.338961 94.7091445,10.9103896 L94.9463127,9.7025974 Z M90.3215339,8.6961039 L90.0843658,9.9038961 C89.5705015,12.3194805 87.0011799,14.412987 84.5899705,14.412987 L80.9929204,14.412987 L82.9297935,5.15324675 L87.5545723,5.15324675 C88.5427729,5.15324675 89.3728614,5.51558442 89.8867257,6.15974026 C90.3610619,6.84415584 90.519174,7.72987013 90.3215339,8.6961039 Z"></path>
                            <path d="M113.99882,6.24025974 L111.271386,19.2038961 L106.883776,19.2038961 L109.492625,6.72337662 C109.532153,6.52207792 109.532153,6.28051948 109.492625,6.07922078 C109.453097,5.87792208 109.374041,5.71688312 109.255457,5.55584416 C109.136873,5.39480519 109.018289,5.27402597 108.860177,5.19350649 C108.702065,5.11298701 108.504425,5.07272727 108.306785,5.07272727 L101.033628,5.07272727 L98.0690265,19.2038961 L93.6814159,19.2038961 L97.6342183,0.362337662 L109.729794,0.362337662 C111.231858,0.362337662 112.417699,0.925974026 113.247788,2.09350649 C114.077876,3.26103896 114.354572,4.62987013 113.99882,6.24025974 L113.99882,6.24025974 Z"></path>
                            <path d="M24.0725664,2.65714286 C22.8867257,1.20779221 21.1474926,0.402597403 19.1710914,0.402597403 L0.751032448,0.402597403 L2.96460177,5.19350649 L0,19.2441558 L4.82241888,19.2441558 L7.78702065,5.23376623 L7.94513274,5.23376623 L7.94513274,5.23376623 L11.8979351,5.23376623 L8.93333333,19.2844156 L13.7557522,19.2844156 L16.680826,5.23376623 L19.1315634,5.23376623 C19.6454277,5.23376623 20.080236,5.39480519 20.3569322,5.71688312 C20.5941003,6.03896104 20.6731563,6.48181818 20.5941003,7.00519481 L18.0247788,19.2441558 L22.8471976,19.2441558 L25.2188791,8.01168831 C25.6141593,6.03896104 25.2188791,4.10649351 24.0725664,2.65714286 Z"></path>
                        </g>
                    </g>
                    <path d="M20.4651121,43.3148936 L19.8096529,41.8680851 L16.5412148,41.8680851 L15.8946132,43.3148936 L15,43.3148936 L17.7546999,37.3574468 L18.6404555,37.3574468 L21.3862979,43.3148936 L20.4651121,43.3148936 Z M16.8778019,41.1276596 L19.4819234,41.1276596 L18.1710051,38.2340426 L16.8778019,41.1276596 Z M28.2331887,38.6 C27.9438404,38.4241126 27.6441628,38.292199 27.3341468,38.2042553 C27.0241308,38.1163116 26.7392156,38.0723404 26.4793926,38.0723404 C26.1191835,38.0723404 25.8313159,38.1390064 25.6157809,38.2723404 C25.400246,38.4056744 25.2924801,38.5886513 25.2924801,38.8212766 C25.2924801,39.0312067 25.3574349,39.2028362 25.4873463,39.3361702 C25.6172578,39.4695042 25.7766922,39.5744677 25.9656544,39.6510638 C26.1546165,39.72766 26.417388,39.8170208 26.7539769,39.9191489 C27.1732366,40.0439723 27.5127729,40.16312 27.7725958,40.2765957 C28.0324187,40.3900715 28.2538554,40.5588641 28.4369125,40.7829787 C28.6199696,41.0070933 28.7114967,41.3035443 28.7114967,41.6723404 C28.7114967,42.0127677 28.6155408,42.310637 28.4236262,42.5659574 C28.2317115,42.8212779 27.963035,43.018439 27.6175886,43.1574468 C27.2721422,43.2964546 26.8750324,43.3659574 26.4262473,43.3659574 C25.9715571,43.3659574 25.5286838,43.2808519 25.0976139,43.1106383 C24.666544,42.9404247 24.2945304,42.7134766 23.9815618,42.4297872 L24.3624367,41.7234043 C24.6576901,42.0014198 24.9898451,42.2156021 25.3589118,42.3659574 C25.7279785,42.5163128 26.0867059,42.5914894 26.4351048,42.5914894 C26.8484595,42.5914894 27.1747096,42.513476 27.4138648,42.3574468 C27.65302,42.2014177 27.7725958,41.9900723 27.7725958,41.7234043 C27.7725958,41.5134741 27.707641,41.3404262 27.5777296,41.2042553 C27.4478181,41.0680844 27.283955,40.9602841 27.0861352,40.8808511 C26.8883155,40.801418 26.6211152,40.7134757 26.2845264,40.6170213 C25.8711717,40.4978717 25.5345879,40.3815609 25.274765,40.2680851 C25.0149421,40.1546094 24.7949816,39.9872351 24.6148771,39.7659574 C24.4347725,39.5446797 24.3447216,39.2524841 24.3447216,38.8893617 C24.3447216,38.5716296 24.4362488,38.2907814 24.6193059,38.0468085 C24.8023629,37.8028357 25.0592295,37.6156035 25.3899132,37.4851064 C25.720597,37.3546093 26.1044206,37.2893617 26.5413955,37.2893617 C26.9134147,37.2893617 27.2780471,37.3418434 27.6353037,37.4468085 C27.9925602,37.5517736 28.3099528,37.6921977 28.587491,37.8680851 L28.2331887,38.6 Z M32.5025307,43.0170213 C32.1423217,43.238299 31.776213,43.3489362 31.4041938,43.3489362 C31.0321746,43.3489362 30.7310207,43.2425543 30.5007231,43.0297872 C30.2704255,42.8170202 30.1552784,42.4950376 30.1552784,42.0638298 L30.1552784,39.5702128 L29.4909617,39.5702128 L29.4909617,38.9659574 L30.1552784,38.9659574 L30.1552784,37.7574468 L30.9878886,37.7574468 L30.9878886,38.9659574 L32.4228127,38.9659574 L32.4228127,39.5702128 L30.9878886,39.5702128 L30.9878886,41.9191489 C30.9878886,42.1687956 31.0351285,42.3475172 31.1296095,42.4553191 C31.2240906,42.5631211 31.3658101,42.6170213 31.5547722,42.6170213 C31.7791648,42.6170213 32.0212689,42.5461 32.2810918,42.4042553 L32.5025307,43.0170213 Z M36.3644252,43.3148936 L36.3644252,42.6851064 C36.0160262,43.1276618 35.4698157,43.3489362 34.7257773,43.3489362 C34.4009986,43.3489362 34.1160834,43.2893623 33.8710231,43.1702128 C33.6259629,43.0510632 33.4370036,42.8865259 33.3041396,42.6765957 C33.1712755,42.4666656 33.1048445,42.231207 33.1048445,41.9702128 C33.1048445,41.5673739 33.2598502,41.2482281 33.5698662,41.012766 C33.8798822,40.7773038 34.3124219,40.6567376 34.8674982,40.6510638 L36.3555676,40.6510638 L36.3555676,40.4382979 C36.3555676,40.1205658 36.2537067,39.8751782 36.0499819,39.7021277 C35.8462571,39.5290771 35.549532,39.4425532 35.1597975,39.4425532 C34.6873922,39.4425532 34.2061365,39.6042537 33.7160159,39.9276596 L33.3705712,39.3829787 C33.70716,39.1730486 34.0186476,39.0212771 34.3050434,38.9276596 C34.5914391,38.8340421 34.9324516,38.787234 35.3280911,38.787234 C35.9126927,38.787234 36.3644236,38.9248213 36.6832972,39.2 C37.0021708,39.4751787 37.1645577,39.859572 37.1704628,40.3531915 L37.1793203,43.3148936 L36.3644252,43.3148936 Z M34.8940709,42.693617 C35.2779002,42.693617 35.6041503,42.6042562 35.8728308,42.4255319 C36.1415113,42.2468076 36.302422,42.0099306 36.3555676,41.7148936 L36.3555676,41.2638298 L34.9826464,41.2638298 C34.6106272,41.2638298 34.3345695,41.31773 34.1544649,41.4255319 C33.9743604,41.5333339 33.8843095,41.7035449 33.8843095,41.9361702 C33.8843095,42.1687955 33.9758366,42.3531908 34.1588937,42.4893617 C34.3419508,42.6255326 34.5870074,42.693617 34.8940709,42.693617 Z M41.9358279,40.012766 C41.5638087,39.6666649 41.1179828,39.493617 40.5983369,39.493617 C40.2912735,39.493617 40.0181682,39.5588646 39.779013,39.6893617 C39.5398578,39.8198588 39.3523747,40.0042541 39.2165582,40.2425532 C39.0807417,40.4808523 39.0128344,40.7560268 39.0128344,41.0680851 C39.0128344,41.3801434 39.0792654,41.655318 39.2121294,41.893617 C39.3449934,42.1319161 39.5280478,42.3177298 39.7612979,42.4510638 C39.994548,42.5843978 40.2617483,42.6510638 40.5629067,42.6510638 C40.8640651,42.6510638 41.1356941,42.6028374 41.3778019,42.506383 C41.6199096,42.4099286 41.8206789,42.2709229 41.9801157,42.0893617 L42.4495662,42.5489362 C42.2369838,42.8042566 41.966831,42.9999993 41.6390998,43.1361702 C41.3113686,43.2723411 40.9408312,43.3404255 40.5274765,43.3404255 C40.0727864,43.3404255 39.6682953,43.2439726 39.3139913,43.0510638 C38.9596873,42.8581551 38.6836296,42.5900726 38.4858098,42.2468085 C38.2879901,41.9035444 38.1890817,41.5106405 38.1890817,41.0680851 C38.1890817,40.6255297 38.2879901,40.2312074 38.4858098,39.8851064 C38.6836296,39.5390054 38.9596873,39.2695045 39.3139913,39.0765957 C39.6682953,38.883687 40.0727864,38.787234 40.5274765,38.787234 C40.923116,38.787234 41.2788909,38.8453895 41.594812,38.9617021 C41.9107331,39.0780148 42.1749809,39.2468074 42.3875633,39.4680851 L41.9358279,40.012766 Z M46.9049168,43.3148936 L45.4079899,41.1276596 L44.4956616,42.0382979 L44.4956616,43.3148936 L43.6719089,43.3148936 L43.6719089,37 L44.4956616,37 L44.4956616,41.0255319 L46.763196,38.812766 L47.7286696,38.812766 L45.983731,40.5574468 L47.8969631,43.3148936 L46.9049168,43.3148936 Z M51.2539769,37.3574468 C52.0275406,37.3574468 52.6254197,37.5333316 53.047632,37.8851064 C53.4698442,38.2368812 53.6809472,38.7304933 53.6809472,39.3659574 C53.6809472,40.0297906 53.468368,40.544679 53.0432032,40.9106383 C52.6180384,41.2765976 52.0216356,41.4595745 51.2539769,41.4595745 L49.7127621,41.4595745 L49.7127621,43.3148936 L48.8624367,43.3148936 L48.8624367,37.3574468 L51.2539769,37.3574468 Z M51.2185466,40.7191489 C51.7500027,40.7191489 52.1574462,40.6070933 52.4408894,40.3829787 C52.7243326,40.1588641 52.8660521,39.828371 52.8660521,39.3914894 C52.8660521,38.9659553 52.7243326,38.6439727 52.4408894,38.4255319 C52.1574462,38.2070911 51.7500027,38.0978723 51.2185466,38.0978723 L49.7127621,38.106383 L49.7127621,40.7191489 L51.2185466,40.7191489 Z M57.5871294,43.3148936 L57.5871294,42.6851064 C57.2387305,43.1276618 56.69252,43.3489362 55.9484816,43.3489362 C55.6237029,43.3489362 55.3387877,43.2893623 55.0937274,43.1702128 C54.8486671,43.0510632 54.6597078,42.8865259 54.5268438,42.6765957 C54.3939798,42.4666656 54.3275488,42.231207 54.3275488,41.9702128 C54.3275488,41.5673739 54.4825545,41.2482281 54.7925705,41.012766 C55.1025865,40.7773038 55.5351262,40.6567376 56.0902025,40.6510638 L57.5782719,40.6510638 L57.5782719,40.4382979 C57.5782719,40.1205658 57.476411,39.8751782 57.2726862,39.7021277 C57.0689614,39.5290771 56.7722362,39.4425532 56.3825018,39.4425532 C55.9100965,39.4425532 55.4288407,39.6042537 54.9387202,39.9276596 L54.5932755,39.3829787 C54.9298643,39.1730486 55.2413519,39.0212771 55.5277477,38.9276596 C55.8141434,38.8340421 56.1551559,38.787234 56.5507954,38.787234 C57.135397,38.787234 57.5871278,38.9248213 57.9060014,39.2 C58.2248751,39.4751787 58.387262,39.859572 58.393167,40.3531915 L58.4020246,43.3148936 L57.5871294,43.3148936 Z M56.1167751,42.693617 C56.5006045,42.693617 56.8268545,42.6042562 57.0955351,42.4255319 C57.3642156,42.2468076 57.5251263,42.0099306 57.5782719,41.7148936 L57.5782719,41.2638298 L56.2053507,41.2638298 C55.8333315,41.2638298 55.5572737,41.31773 55.3771692,41.4255319 C55.1970647,41.5333339 55.1070137,41.7035449 55.1070137,41.9361702 C55.1070137,42.1687955 55.1985409,42.3531908 55.381598,42.4893617 C55.564655,42.6255326 55.8097116,42.693617 56.1167751,42.693617 Z M62.3879248,43.0170213 C62.0277157,43.238299 61.6616071,43.3489362 61.2895879,43.3489362 C60.9175686,43.3489362 60.6164147,43.2425543 60.3861171,43.0297872 C60.1558195,42.8170202 60.0406725,42.4950376 60.0406725,42.0638298 L60.0406725,39.5702128 L59.3763557,39.5702128 L59.3763557,38.9659574 L60.0406725,38.9659574 L60.0406725,37.7574468 L60.8732827,37.7574468 L60.8732827,38.9659574 L62.3082068,38.9659574 L62.3082068,39.5702128 L60.8732827,39.5702128 L60.8732827,41.9191489 C60.8732827,42.1687956 60.9205225,42.3475172 61.0150036,42.4553191 C61.1094847,42.5631211 61.2512042,42.6170213 61.4401663,42.6170213 C61.6645588,42.6170213 61.906663,42.5461 62.1664859,42.4042553 L62.3879248,43.0170213 Z M66.0460954,38.787234 C66.5952667,38.787234 67.0263301,38.9418424 67.3392986,39.2510638 C67.6522672,39.5602852 67.8087491,39.9872313 67.8087491,40.5319149 L67.8087491,43.3148936 L66.9849964,43.3148936 L66.9849964,40.7446809 C66.9849964,40.3645371 66.874278,40.0680862 66.652838,39.8553191 C66.431398,39.6425521 66.1258154,39.5361702 65.736081,39.5361702 C65.2813908,39.541844 64.9211872,39.6893603 64.6554591,39.9787234 C64.3897311,40.2680866 64.2568691,40.6425509 64.2568691,41.1021277 L64.2568691,43.3148936 L63.4331164,43.3148936 L63.4331164,37 L64.2568691,37 L64.2568691,39.7829787 C64.5698377,39.1304932 65.1662405,38.7985816 66.0460954,38.787234 Z M76.170282,38.787234 C75.9340793,38.548935 75.6594978,38.3631212 75.3465293,38.2297872 C75.0335607,38.0964532 74.7117394,38.0297872 74.3810557,38.0297872 C73.9440807,38.0297872 73.5425422,38.1319139 73.1764281,38.3361702 C72.8103139,38.5404266 72.52097,38.8170195 72.3083876,39.1659574 C72.0958052,39.5148954 71.9895155,39.8992887 71.9895155,40.3191489 C71.9895155,40.7333354 72.0958052,41.1163103 72.3083876,41.4680851 C72.52097,41.8198599 72.8103139,42.0978713 73.1764281,42.3021277 C73.5425422,42.506384 73.9440807,42.6085106 74.3810557,42.6085106 C74.7058344,42.6085106 75.0247032,42.5446815 75.3376717,42.4170213 C75.6506403,42.2893611 75.9281743,42.1148947 76.170282,41.893617 L76.6840202,42.4297872 C76.3710517,42.7248242 76.0078955,42.9560275 75.5945409,43.1234043 C75.1811862,43.290781 74.7619327,43.3744681 74.3367679,43.3744681 C73.7462612,43.3744681 73.2059557,43.2397177 72.7158351,42.9702128 C72.2257146,42.7007079 71.8389385,42.3333357 71.5554953,41.8680851 C71.2720521,41.4028346 71.1303326,40.8893645 71.1303326,40.3276596 C71.1303326,39.7716284 71.2735283,39.2624137 71.5599241,38.8 C71.8463198,38.3375863 72.2375246,37.973051 72.7335503,37.706383 C73.2295759,37.439715 73.7757864,37.306383 74.3721981,37.306383 C74.803268,37.306383 75.2210452,37.3843964 75.6255423,37.5404255 C76.0300394,37.6964547 76.3799093,37.9163106 76.6751627,38.2 L76.170282,38.787234 Z M79.5981562,38.787234 C80.0646565,38.787234 80.4794812,38.883687 80.8426428,39.0765957 C81.2058044,39.2695045 81.4892434,39.5375869 81.6929682,39.8808511 C81.896693,40.2241152 81.9985539,40.6170191 81.9985539,41.0595745 C81.9985539,41.5021299 81.896693,41.8964522 81.6929682,42.2425532 C81.4892434,42.5886542 81.2058044,42.8581551 80.8426428,43.0510638 C80.4794812,43.2439726 80.0646565,43.3404255 79.5981562,43.3404255 C79.1257508,43.3404255 78.7079736,43.2439726 78.344812,43.0510638 C77.9816504,42.8581551 77.6982114,42.5900726 77.4944866,42.2468085 C77.2907618,41.9035444 77.1889009,41.5078037 77.1889009,41.0595745 C77.1889009,40.6170191 77.2907618,40.2241152 77.4944866,39.8808511 C77.6982114,39.5375869 77.9816504,39.2695045 78.344812,39.0765957 C78.7079736,38.883687 79.1257508,38.787234 79.5981562,38.787234 Z M79.5981562,39.4765957 C79.2910927,39.4765957 79.0179875,39.5446802 78.7788322,39.6808511 C78.539677,39.817022 78.3536702,40.0056726 78.2208062,40.2468085 C78.0879422,40.4879445 78.0215112,40.7617006 78.0215112,41.0680851 C78.0215112,41.3801434 78.0879422,41.6581548 78.2208062,41.9021277 C78.3536702,42.1461005 78.539677,42.3347511 78.7788322,42.4680851 C79.0179875,42.6014191 79.2910927,42.6680851 79.5981562,42.6680851 C79.8993146,42.6680851 80.1694674,42.6014191 80.4086226,42.4680851 C80.6477778,42.3347511 80.8337846,42.1461005 80.9666486,41.9021277 C81.0995126,41.6581548 81.1659436,41.3801434 81.1659436,41.0680851 C81.1659436,40.7617006 81.0995126,40.4879445 80.9666486,40.2468085 C80.8337846,40.0056726 80.6477778,39.817022 80.4086226,39.6808511 C80.1694674,39.5446802 79.8993146,39.4765957 79.5981562,39.4765957 Z M89.1997469,38.787234 C89.737108,38.787234 90.159314,38.9432609 90.4663774,39.2553191 C90.7734409,39.5673774 90.9269704,39.9929051 90.9269704,40.5319149 L90.9269704,43.3148936 L90.0943601,43.3148936 L90.0943601,40.7446809 C90.0943601,40.3645371 89.9865942,40.0666677 89.7710593,39.8510638 C89.5555244,39.6354599 89.2587992,39.5276596 88.8808749,39.5276596 C88.4379949,39.5390071 88.0896012,39.6893603 87.8356833,39.9787234 C87.5817654,40.2680866 87.4548084,40.639714 87.4548084,41.093617 L87.4548084,43.3148936 L86.6221981,43.3148936 L86.6221981,40.7446809 C86.6221981,40.3645371 86.5159085,40.0666677 86.3033261,39.8510638 C86.0907437,39.6354599 85.7925423,39.5276596 85.4087129,39.5276596 C84.9658329,39.5390071 84.615963,39.6893603 84.3590926,39.9787234 C84.1022221,40.2680866 83.9737889,40.639714 83.9737889,41.093617 L83.9737889,43.3148936 L83.1500362,43.3148936 L83.1500362,38.812766 L83.9737889,38.812766 L83.9737889,39.7574468 C84.2808523,39.1219826 84.8624927,38.7985816 85.7187274,38.787234 C86.1497973,38.787234 86.5085247,38.8865238 86.7949205,39.0851064 C87.0813162,39.2836889 87.2747042,39.5617003 87.3750904,39.9191489 C87.6644387,39.1758828 88.2726514,38.7985816 89.1997469,38.787234 Z M95.0014461,38.787234 C95.4384211,38.787234 95.8281496,38.883687 96.1706435,39.0765957 C96.5131374,39.2695045 96.7788614,39.5390054 96.9678236,39.8851064 C97.1567857,40.2312074 97.2512654,40.6283666 97.2512654,41.0765957 C97.2512654,41.5191511 97.158262,41.912055 96.9722523,42.2553191 C96.7862427,42.5985833 96.5234712,42.8652473 96.1839299,43.0553191 C95.8443885,43.245391 95.4561362,43.3404255 95.0191612,43.3404255 C94.6235218,43.3404255 94.275128,43.2609937 93.9739696,43.1021277 C93.6728112,42.9432616 93.4366121,42.7163135 93.2653651,42.4212766 L93.2653651,44.9659574 L92.4416124,44.9659574 L92.4416124,38.812766 L93.2653651,38.812766 L93.2653651,39.706383 C93.4366121,39.411346 93.671335,39.184398 93.9695409,39.0255319 C94.2677467,38.8666659 94.6117117,38.787234 95.0014461,38.787234 Z M94.8420101,42.6510638 C95.1431685,42.6510638 95.4133213,42.5829794 95.6524765,42.4468085 C95.8916317,42.3106376 96.0776385,42.1205686 96.2105025,41.8765957 C96.3433665,41.6326229 96.4097975,41.3574483 96.4097975,41.0510638 C96.4097975,40.7503531 96.3418903,40.4780154 96.2060738,40.2340426 C96.0702572,39.9900697 95.8842504,39.8000007 95.6480477,39.6638298 C95.411845,39.5276589 95.1431685,39.4595745 94.8420101,39.4595745 C94.5408517,39.4595745 94.270699,39.5276589 94.0315437,39.6638298 C93.7923885,39.8000007 93.6049055,39.9900697 93.4690889,40.2340426 C93.3332724,40.4780154 93.2653651,40.7503531 93.2653651,41.0510638 C93.2653651,41.3631221 93.3332724,41.6397151 93.4690889,41.8808511 C93.6049055,42.121987 93.7923885,42.3106376 94.0315437,42.4468085 C94.270699,42.5829794 94.5408517,42.6510638 94.8420101,42.6510638 Z M101.263738,43.3148936 L101.263738,42.6851064 C100.915339,43.1276618 100.369129,43.3489362 99.6250904,43.3489362 C99.3003117,43.3489362 99.0153965,43.2893623 98.7703362,43.1702128 C98.5252759,43.0510632 98.3363166,42.8865259 98.2034526,42.6765957 C98.0705886,42.4666656 98.0041576,42.231207 98.0041576,41.9702128 C98.0041576,41.5673739 98.1591633,41.2482281 98.4691793,41.012766 C98.7791953,40.7773038 99.211735,40.6567376 99.7668113,40.6510638 L101.254881,40.6510638 L101.254881,40.4382979 C101.254881,40.1205658 101.15302,39.8751782 100.949295,39.7021277 C100.74557,39.5290771 100.448845,39.4425532 100.059111,39.4425532 C99.5867053,39.4425532 99.1054495,39.6042537 98.615329,39.9276596 L98.2698843,39.3829787 C98.6064731,39.1730486 98.9179607,39.0212771 99.2043565,38.9276596 C99.4907522,38.8340421 99.8317647,38.787234 100.227404,38.787234 C100.812006,38.787234 101.263737,38.9248213 101.58261,39.2 C101.901484,39.4751787 102.063871,39.859572 102.069776,40.3531915 L102.078633,43.3148936 L101.263738,43.3148936 Z M99.7933839,42.693617 C100.177213,42.693617 100.503463,42.6042562 100.772144,42.4255319 C101.040824,42.2468076 101.201735,42.0099306 101.254881,41.7148936 L101.254881,41.2638298 L99.8819595,41.2638298 C99.5099403,41.2638298 99.2338826,41.31773 99.053778,41.4255319 C98.8736735,41.5333339 98.7836226,41.7035449 98.7836226,41.9361702 C98.7836226,42.1687955 98.8751497,42.3531908 99.0582068,42.4893617 C99.2412639,42.6255326 99.4863205,42.693617 99.7933839,42.693617 Z M106.153109,38.787234 C106.70228,38.787234 107.133344,38.9418424 107.446312,39.2510638 C107.759281,39.5602852 107.915763,39.9872313 107.915763,40.5319149 L107.915763,43.3148936 L107.09201,43.3148936 L107.09201,40.7446809 C107.09201,40.3645371 106.981292,40.0680862 106.759852,39.8553191 C106.538412,39.6425521 106.232829,39.5361702 105.843095,39.5361702 C105.423835,39.541844 105.082822,39.6709207 104.820047,39.9234043 C104.557272,40.1758878 104.408171,40.5035441 104.37274,40.906383 L104.37274,43.3148936 L103.548988,43.3148936 L103.548988,38.812766 L104.37274,38.812766 L104.37274,39.7659574 C104.685709,39.1248195 105.279159,38.7985816 106.153109,38.787234 Z M110.856471,43.9531915 C110.708845,44.2992925 110.512504,44.5602828 110.267444,44.7361702 C110.022384,44.9120576 109.734516,45 109.403832,45 C109.20306,45 109.020006,44.9716315 108.854664,44.9148936 C108.689322,44.8581557 108.529887,44.7702134 108.376356,44.6510638 L108.730658,44.0297872 C108.937335,44.1716319 109.146962,44.2425532 109.359544,44.2425532 C109.713848,44.2425532 109.979573,44.0496473 110.156725,43.6638298 L110.333876,43.2638298 L108.394071,38.812766 L109.262111,38.812766 L110.750181,42.4212766 L112.158532,38.812766 L113,38.812766 L110.856471,43.9531915 Z" id="A-StackPath-Company" fill="#000000"></path>
                    <path d="M9.82142857,37.6720648 L4.00714286,37.6720648 C3.26071429,37.6720648 2.63214286,38.3198381 2.63214286,39.0890688 C2.63214286,39.8582996 3.26071429,40.5060729 4.00714286,40.5060729 L7.03214286,40.5060729 C7.26785714,40.5060729 7.425,40.708502 7.425,40.9109312 C7.425,41.1538462 7.22857143,41.3157895 7.03214286,41.3157895 L4.00714286,41.3157895 C2.82857143,41.3157895 1.84642857,40.3036437 1.84642857,39.0890688 C1.84642857,37.8744939 2.82857143,36.8623482 4.00714286,36.8623482 L9.35,36.8623482 L8.525,35.4048583 C8.36785714,35.1619433 8.13214286,35 7.85714286,35 L3.14285714,35 C2.86785714,35 2.59285714,35.1619433 2.475,35.4048583 L0.117857143,39.6153846 C-0.0392857143,39.8582996 -0.0392857143,40.1821862 0.117857143,40.4251012 L1.17857143,42.3279352 L6.99285714,42.3279352 C7.73928571,42.3279352 8.36785714,41.7206478 8.36785714,40.9109312 C8.36785714,40.1417004 7.73928571,39.4939271 6.99285714,39.4939271 L3.96785714,39.4939271 C3.73214286,39.4939271 3.575,39.291498 3.575,39.0890688 C3.575,38.8866397 3.77142857,38.6842105 3.96785714,38.6842105 L6.99285714,38.6842105 C8.17142857,38.6842105 9.15357143,39.6963563 9.15357143,40.9109312 C9.15357143,42.1255061 8.17142857,43.1376518 6.99285714,43.1376518 L1.65,43.1376518 L2.475,44.5951417 C2.63214286,44.8380567 2.86785714,45 3.14285714,45 L7.85714286,45 C8.13214286,45 8.40714286,44.8380567 8.525,44.5951417 L10.8821429,40.3846154 C11.0392857,40.1417004 11.0392857,39.8178138 10.8821429,39.5748988 L9.82142857,37.6720648 Z" id="Shape" fill="#00AFEC"></path>
                </g>
                <g id="wimdu-logo-white-de16797b69e4e3bf700841bda70d89b75e01e146419879087fd5a7b2d4a144c3" transform="translate(403.000000, 4.000000)" fill-rule="nonzero">
                    <path d="M13.7280747,7.75289298 L10.5163924,16.4822954 L5.09387755,0 L0,0 L7.96198456,23.4510217 L12.7421629,23.4510217 L16.1928542,14.3221382 L13.7280747,7.75289298 Z M36.9418158,0 L41.7668083,0 L41.7668083,23.4510217 L36.9418158,23.4510217 L36.9418158,0 Z M59.2293973,23.5102041 L54.449219,9.38040868 L50.5802621,23.4510217 L45.6805793,23.4510217 L52.0890059,0 L56.0625292,0 L61.0518403,14.8695753 L66.0262134,0 L69.9997367,0 L76.4081633,23.4510217 L71.4935424,23.4510217 L67.6544617,9.38040868 L62.8593453,23.5102041 L59.2293973,23.5102041 Z" id="Shape" fill="#006ABA"></path>
                    <polygon id="Shape" fill="#FCAF1A" points="28.2557128 0 22.8488037 16.538724 19.6403082 7.72795983 14.6938776 7.72795983 20.6355359 23.5102041 25.3888626 23.5102041 33.3061224 0"></polygon>
                    <path d="M88.5128163,0 L80.3265306,0 L80.3265306,23.6420137 L88.4979592,23.6420137 C95.7482449,23.6420137 101.007673,18.6600373 101.007673,11.7688005 C100.992816,4.95214419 95.7333878,0 88.5128163,0 L88.5128163,0 Z M88.5128163,19.1821007 L85.1402449,19.1821007 L85.1402449,4.44499689 L88.5128163,4.44499689 C92.9253878,4.44499689 96.0156735,7.47296457 96.0156735,11.8284649 C95.971102,16.2436296 92.9699592,19.1821007 88.5128163,19.1821007 L88.5128163,19.1821007 Z M120.113959,0 L120.113959,13.543816 C120.113959,17.377253 118.241959,19.4953387 114.839673,19.4953387 C111.407673,19.4953387 109.520816,17.3175886 109.520816,13.379739 L109.520816,0 L104.736816,0 L104.736816,13.543816 C104.736816,20.1814792 108.391673,24 114.780245,24 C121.213388,24 124.897959,20.1068987 124.897959,13.3648229 L124.897959,0 L120.113959,0 Z" id="Shape" fill="#006ABA"></path>
                </g>
                <g id="d2d-logo-black" transform="translate(11.000000, 138.000000)">
                    <path d="M171.22,7.97513043 L171.22,11.5238261 C171.22,11.6482102 171.119167,11.7490435 170.994783,11.7490435 L170.233913,11.7490435 C170.109529,11.7490435 170.008696,11.6482102 170.008696,11.5238261 L170.008696,8.76034783 C170.008696,8.63617391 169.921652,8.58808696 169.815739,8.652 L169.511391,8.83826087 C169.461055,8.86922078 169.400347,8.87853736 169.343043,8.86409673 C169.285739,8.84965609 169.236697,8.81268256 169.207043,8.76156522 L168.826609,8.1066087 C168.765179,7.99781732 168.799369,7.85999047 168.904522,7.79252174 L172.806261,5.33947826 C172.924385,5.27392755 173.067963,5.27392755 173.186087,5.33947826 L177.083565,7.79252174 C177.188768,7.85999373 177.222739,7.99801609 177.16087,8.1066087 L176.781043,8.76156522 C176.75139,8.81268256 176.702348,8.84965609 176.645044,8.86409673 C176.58774,8.87853736 176.527032,8.86922078 176.476696,8.83826087 L176.172348,8.6526087 C176.066435,8.58808696 175.98,8.63617391 175.98,8.76034783 L175.98,11.5238261 C175.98,11.6482102 175.879167,11.7490435 175.754783,11.7490435 L174.992696,11.7490435 C174.868312,11.7490435 174.767478,11.6482102 174.767478,11.5238261 L174.767478,7.97391304 C174.760016,7.83575219 174.690704,7.7083064 174.578783,7.62695652 L173.183043,6.73826087 C173.065355,6.67187166 172.921515,6.67187166 172.803826,6.73826087 L171.409913,7.62695652 C171.297857,7.70818805 171.228507,7.83570336 171.221217,7.97391304" id="Shape" fill="#003552" fill-rule="nonzero"></path>
                    <path d="M173.624348,8.17052174 L173.624348,8.79626087 C173.624348,8.920645 173.523515,9.02147826 173.39913,9.02147826 L172.588348,9.02147826 C172.463964,9.02147826 172.36313,8.920645 172.36313,8.79626087 L172.36313,8.17113043 C172.36313,8.04756522 172.464174,7.94591304 172.588348,7.94591304 L173.39913,7.94591304 C173.523304,7.94591304 173.624348,8.04756522 173.624348,8.17113043 M178.227304,17.5730435 C174.973217,17.5687826 172.363739,15.0177391 172.363739,11.8713913 L172.363739,10.8183478 L172.361913,10.8122609 L172.361913,10.1853043 C172.361913,10.0611304 172.463565,9.96008696 172.58713,9.96008696 L173.398522,9.96008696 C173.522696,9.96008696 173.625565,10.0617391 173.625565,10.1853043 L173.625565,11.8713913 C173.625565,14.3213913 175.69513,16.3653913 178.227304,16.3653913 L178.227304,16.3678261 C180.761304,16.366 182.827826,14.3226087 182.827826,11.8732174 L182.827826,10.1853043 C182.827826,10.125573 182.851554,10.0682881 182.893791,10.0260516 C182.936027,9.98381515 182.993312,9.96008696 183.053043,9.96008696 L183.866261,9.96008696 C183.925992,9.96008696 183.983277,9.98381515 184.025514,10.0260516 C184.06775,10.0682881 184.091478,10.125573 184.091478,10.1853043 L184.092696,11.8726087 C184.092696,15.0207826 181.482609,17.5724348 178.227304,17.5724348 M182.827826,8.79504348 L182.827826,8.17052174 C182.827826,8.11079037 182.851554,8.05350545 182.893791,8.01126899 C182.936027,7.96903254 182.993312,7.94530435 183.053043,7.94530435 L183.864435,7.94530435 C183.988,7.94530435 184.089652,8.04634783 184.089652,8.17052174 L184.089652,8.79565217 C184.089652,8.92043478 183.988,9.02086957 183.864435,9.02086957 L183.052435,9.02086957 C182.928051,9.02086957 182.827217,8.9200363 182.827217,8.79565217" id="Shape" fill="#003552" fill-rule="nonzero"></path>
                    <g id="Group" transform="translate(178.956522, 4.743565)">
                        <g id="Clipped">
                            <g id="Shape-Clipped">
                                <mask id="mask-2" fill="white">
                                    <use xlink:href="#path-1"></use>
                                </mask>
                                <g id="path-1"></g>
                                <path d="M8.29043478,4.0186087 C8.26088419,4.06982826 8.21188748,4.10693085 8.15457464,4.12148831 C8.0972618,4.13604577 8.03649826,4.12682229 7.98608696,4.09591304 L7.68052174,3.90904348 C7.57521739,3.84391304 7.48878261,3.8926087 7.48878261,4.01678261 L7.48878261,6.78026087 C7.48878261,6.904645 7.38794935,7.00547826 7.26356522,7.00547826 L6.50086957,7.00547826 C6.37648543,7.00547826 6.27565217,6.904645 6.27565217,6.78026087 L6.27565217,3.23217391 C6.26771418,3.09418832 6.19793396,2.96715254 6.08573913,2.88643478 L4.69304348,1.99652174 C4.5753265,1.92941677 4.43093437,1.92941677 4.31321739,1.99652174 L2.91747826,2.88521739 C2.80535049,2.96599451 2.73558929,3.09299568 2.72756522,3.23095652 L2.72756522,6.77965217 C2.72756703,6.90356243 2.62747366,7.00419978 2.50356522,7.00486957 L1.73965217,7.00486957 C1.61526804,7.00486957 1.51443478,6.9040363 1.51443478,6.77965217 L1.51443478,4.0173913 C1.51443478,3.89382609 1.42921739,3.84513043 1.32269565,3.91026087 L1.01956522,4.09591304 C0.969241931,4.12716822 0.908362659,4.13658857 0.850946339,4.12200483 C0.79353002,4.10742108 0.744525545,4.07009026 0.715217391,4.0186087 L0.334782609,3.36365217 C0.272913118,3.25505957 0.306883737,3.11703721 0.412086957,3.04956522 L4.30956522,0.596521739 C4.42806608,0.530753828 4.57210783,0.530753828 4.6906087,0.596521739 L8.59234783,3.04956522 C8.69704348,3.11530435 8.73234783,3.25652174 8.66965217,3.36365217 L8.28982609,4.0186087 L8.29043478,4.0186087 Z" id="Shape" fill="#003552" fill-rule="nonzero" mask="url(#mask-2)"></path>
                            </g>
                        </g>
                    </g>
                    <g id="Group" transform="translate(93.130435, 0.482696)">
                        <g id="Clipped">
                            <g id="Shape-Clipped">
                                <mask id="mask-4" fill="white">
                                    <use xlink:href="#path-3"></use>
                                </mask>
                                <g id="path-3"></g>
                                <path d="M10.7629565,22.9697391 C14.3542609,22.9697391 16.653913,19.7375652 16.653913,16.7196522 C16.653913,13.4509565 14.14,10.4701739 10.7629565,10.4701739 C7.20695652,10.4701739 4.872,13.7753913 4.872,16.5772174 C4.872,20.2768696 7.63791304,22.9703478 10.7629565,22.9703478 L10.7629565,22.9697391 Z M21.0712174,26.7053043 L16.6886087,26.7053043 L16.6886087,24.2626087 L16.6173913,24.2626087 C15.7195652,25.6991304 13.6366087,27.3511304 10.2601739,27.3511304 C5.19582609,27.3511304 0.0949565217,23.1846087 0.0949565217,16.7555652 C0.0949565217,10.0386087 5.48191304,6.08695652 10.2601739,6.08695652 C13.1697391,6.08695652 14.8923478,7.05721739 16.2941739,8.53026087 L16.2941739,0.126 L21.0706087,0.126 L21.0706087,26.7053043 L21.0712174,26.7053043 Z" id="Shape" fill="#003552" fill-rule="nonzero" mask="url(#mask-4)"></path>
                            </g>
                        </g>
                    </g>
                    <path d="M155.266087,7.25382609 L159.647478,7.25382609 L159.647478,9.01295652 L159.719304,9.01295652 C160.61713,7.72069565 161.514957,6.57086957 163.993565,6.57086957 L164.389217,6.57086957 L164.389217,11.2048696 C160.04313,11.3844348 160.04313,14.7961739 160.04313,15.981913 L160.04313,27.188 L155.26487,27.188 L155.26487,7.25321739 L155.266087,7.25382609 Z M74.1074783,22.882087 L83.3206957,14.2970435 C85.8674783,11.9243478 86.1815652,10.3892174 86.1815652,9.20226087 C86.1815652,6.48017391 84.1582609,5.32913043 82.4137391,5.32913043 C80.5986087,5.32913043 79.4816522,6.47956522 78.9587826,7.42304348 C78.5046957,8.29530435 78.47,9.30695652 78.47,10.3192174 L73.8633913,10.3192174 C73.8286957,9.96982609 73.8286957,9.76043478 73.8286957,9.48165217 C73.8286957,5.39852174 76.9348696,0.931913043 82.3078261,0.931913043 C87.577913,0.931913043 90.8234783,5.18973913 90.8234783,9.41104348 C90.8234783,12.0649565 89.8118261,14.6823478 85.8333913,18.2066957 L80.5986087,22.8826957 L90.8234783,22.8826957 L90.8234783,27.279913 L74.1074783,27.279913 L74.1074783,22.8826957 L74.1074783,22.882087 Z M142.94913,6.61043478 C140.250783,6.61043478 137.738696,7.65495652 135.829217,9.38243478 C137.298609,11.2645217 137.897565,13.0102609 138.104522,13.7589565 C139.292696,11.9292174 141.312348,10.9924348 142.949739,10.9924348 C145.929913,10.9924348 148.732348,13.685913 148.732348,17.3131304 C148.732348,20.474087 146.433304,23.4913913 142.949739,23.4913913 C139.931826,23.4913913 137.094087,21.0493043 137.094087,17.2766087 C137.094087,17.2206087 137.097739,17.1652174 137.098957,17.1092174 L137.09713,17.1153043 C137.106261,13.6213913 135.210174,11.1074783 134.725652,10.5231304 C133.161526,12.4254711 132.309943,14.8138191 132.317652,17.2766087 C132.317652,22.988 137.02287,27.8727826 142.949739,27.8727826 C148.480957,27.8727826 153.510609,23.7421739 153.510609,17.2053913 C153.510609,11.0989565 148.588696,6.60921739 142.949739,6.60921739 L142.94913,6.61043478 Z" id="Shape" fill="#003552" fill-rule="nonzero"></path>
                    <path d="M126.510087,6.61043478 C120.799304,6.61043478 115.878,11.2438261 115.878,17.2778261 C115.878,22.9892174 120.584435,27.874 126.510696,27.874 C129.12687,27.874 131.623739,26.9402609 133.535043,25.2748696 C132.034,23.4633913 131.382696,21.7626957 131.148957,21.0164348 C130.143391,22.4797391 128.526696,23.492 126.510696,23.492 C123.493391,23.492 120.656261,21.049913 120.656261,17.2772174 C120.656261,13.111913 124.032696,10.9924348 126.510696,10.9924348 C129.491478,10.9924348 132.293304,13.685913 132.293304,17.3131304 C132.293304,17.3983478 132.29087,17.4835652 132.287217,17.5675652 C132.457652,21.3037391 134.437739,23.6411304 134.76887,24.0075652 C136.192,22.2423478 137.070957,19.9353913 137.070957,17.206 C137.070957,11.0995652 132.150261,6.60982609 126.510087,6.60982609" id="Shape" fill="#003552" fill-rule="nonzero"></path>
                    <g id="Group" transform="translate(0.000000, 0.482696)">
                        <g id="Clipped">
                            <g id="Shape-Clipped">
                                <mask id="mask-6" fill="white">
                                    <use xlink:href="#path-5"></use>
                                </mask>
                                <g id="path-5"></g>
                                <path d="M10.668,22.9697391 C14.2593043,22.9697391 16.5589565,19.7375652 16.5589565,16.7196522 C16.5589565,13.4509565 14.0450435,10.4701739 10.668,10.4701739 C7.112,10.4701739 4.77704348,13.7753913 4.77704348,16.5772174 C4.77704348,20.2768696 7.54295652,22.9703478 10.668,22.9703478 L10.668,22.9697391 Z M20.9762609,26.7053043 L16.5936522,26.7053043 L16.5936522,24.2626087 L16.5230435,24.2626087 C15.6258261,25.6991304 13.5422609,27.3511304 10.1658261,27.3511304 C5.10086957,27.3511304 0,23.1852174 0,16.7561739 C0,10.0392174 5.38695652,6.08817391 10.1652174,6.08817391 C13.0747826,6.08817391 14.7973913,7.05782609 16.1992174,8.53086957 L16.1992174,0.126 L20.9762609,0.126 L20.9762609,26.7053043 Z" id="Shape" fill="#003552" fill-rule="nonzero" mask="url(#mask-6)"></path>
                            </g>
                        </g>
                    </g>
                    <path d="M62.040087,7.25382609 L66.4226957,7.25382609 L66.4226957,9.01295652 L66.493913,9.01295652 C67.3923478,7.72069565 68.2895652,6.57086957 70.7681739,6.57086957 L71.1638261,6.57086957 L71.1638261,11.2048696 C66.8177391,11.3844348 66.8177391,14.7961739 66.8177391,15.981913 L66.8177391,27.188 L62.0394783,27.188 L62.0394783,7.25321739 L62.040087,7.25382609 Z M49.7243478,6.61043478 C47.0253913,6.61043478 44.513913,7.65495652 42.6038261,9.38243478 C44.0732174,11.2645217 44.6733913,13.0102609 44.8791304,13.7589565 C46.0673043,11.9292174 48.0869565,10.9924348 49.7243478,10.9924348 C52.7045217,10.9924348 55.5069565,13.685913 55.5069565,17.3131304 C55.5069565,20.474087 53.207913,23.4913913 49.7243478,23.4913913 C46.7064348,23.4913913 43.8686957,21.0493043 43.8686957,17.2766087 C43.8686957,17.2206087 43.8723478,17.1652174 43.8735652,17.1092174 L43.8717391,17.1153043 C43.8802609,13.6213913 41.9847826,11.1074783 41.4996522,10.5231304 C39.9355256,12.4254711 39.0839434,14.8138191 39.0916522,17.2766087 C39.0916522,22.988 43.7968696,27.8727826 49.7237391,27.8727826 C55.2543478,27.8727826 60.2833913,23.7421739 60.2833913,17.2053913 C60.2833913,11.0989565 55.362087,6.60921739 49.7225217,6.60921739 L49.7243478,6.61043478 Z" id="Shape" fill="#003552" fill-rule="nonzero"></path>
                    <path d="M33.2846957,6.61043478 C27.573913,6.61043478 22.6526087,11.2438261 22.6526087,17.2778261 C22.6526087,22.9892174 27.3578261,27.874 33.2846957,27.874 C35.902087,27.874 38.3977391,26.9402609 40.3090435,25.2748696 C38.808,23.4633913 38.1566957,21.7626957 37.9229565,21.0164348 C36.9173913,22.4797391 35.3013043,23.492 33.2846957,23.492 C30.2673913,23.492 27.4302609,21.049913 27.4302609,17.2772174 C27.4302609,13.111913 30.8066957,10.9924348 33.2846957,10.9924348 C36.2654783,10.9924348 39.0673043,13.685913 39.0673043,17.3131304 C39.0673043,17.3983478 39.0648696,17.4835652 39.0612174,17.5675652 C39.2316522,21.3037391 41.2117391,23.6411304 41.5428696,24.0075652 C42.9653913,22.2423478 43.8437391,19.9353913 43.8437391,17.206 C43.8437391,11.0995652 38.9236522,6.60982609 33.2828696,6.60982609" id="Shape" fill="#003552" fill-rule="nonzero"></path>
                </g>
                <g id="flightright-logo" transform="translate(0.000000, 268.000000)" fill-rule="nonzero">
                    <path d="M70.4041237,14.4948454 C69.9726341,14.4935504 69.5442239,14.5675105 69.1381443,14.7134021 C68.751379,14.8511821 68.3964918,15.0657976 68.0948454,15.3443299 C67.4677708,15.9352745 67.1189232,16.7632261 67.1340206,17.6247423 L67.1340206,24.7628866 L63.7113402,24.7628866 L63.7113402,11.5216495 L66.9896907,11.5216495 L67.0680412,13.0721649 C67.2041237,12.9154639 67.3608247,12.7505155 67.5505155,12.5731959 C67.7999163,12.333843 68.0767536,12.1248308 68.3752577,11.9505155 C68.7265936,11.7473907 69.1001997,11.5854947 69.4886598,11.4680412 C69.9626561,11.3295957 70.4547052,11.2628772 70.9484536,11.2701031 C71.2367621,11.268311 71.5248156,11.2876065 71.8103093,11.3278351 C72.0760214,11.3678197 72.3370994,11.4341253 72.5896907,11.5257732 L72.6391753,11.5257732 L72.6391753,11.5752577 L71.9546392,14.7505155 L71.8762887,14.7381443 C71.6605522,14.6475661 71.434966,14.5825198 71.2041237,14.5443299 C70.9391143,14.5074068 70.6716633,14.4908635 70.4041237,14.4948454 L70.4041237,14.4948454 Z M78.3835052,11.5216495 L74.9649485,11.5216495 L74.9649485,24.7587629 L78.3835052,24.7587629 L78.3835052,11.5216495 Z M93.5670103,27.3773196 C93.2620791,28.0705802 92.8088205,28.6885321 92.2391753,29.1876289 C91.6514195,29.6909629 90.9684736,30.0710005 90.2309278,30.3051546 C89.4208035,30.5650923 88.574496,30.694544 87.7237113,30.6886598 C87.109232,30.6922021 86.4950869,30.6591539 85.8845361,30.5896907 C85.4008044,30.5320462 84.9214098,30.4425041 84.4494845,30.3216495 C84.052361,30.2212428 83.665728,30.0831595 83.2948454,29.9092784 C82.9526988,29.7420123 82.6268905,29.543214 82.3216495,29.3154639 L82.2762887,29.2824742 L83.8185567,26.7463918 L83.8721649,26.7793814 C84.3824316,27.1276833 84.948744,27.3857321 85.5463918,27.542268 C86.2415963,27.7096026 86.9551321,27.7885765 87.6701031,27.7773196 C88.4457412,27.7989944 89.2005758,27.5247772 89.7814433,27.0103093 C90.3617944,26.455996 90.6706509,25.6755682 90.6268041,24.8742268 L90.6268041,23.5628866 C90.2031286,23.8973933 89.7372733,24.1746881 89.2412371,24.3876289 C88.5603816,24.6485742 87.833805,24.7692028 87.1051546,24.742268 C86.2289939,24.7568007 85.3590613,24.592636 84.5484536,24.2597938 C83.8238408,23.9522492 83.1729928,23.4939847 82.6391753,22.9154639 C82.1044506,22.3253575 81.696081,21.6321114 81.4391753,20.8783505 C81.1574334,20.0486276 81.0180113,19.1772394 81.0268041,18.3010309 C81.0224205,17.355379 81.1987789,16.4175999 81.5463918,15.5381443 C81.8840867,14.6908713 82.393783,13.9228166 83.043299,13.2824742 C83.7188359,12.6263315 84.5196503,12.1130249 85.3979381,11.7731959 C86.3875562,11.395649 87.4398873,11.2095319 88.4989691,11.2247423 C89.5584008,11.2178111 90.6160886,11.311705 91.657732,11.5051546 C92.4509485,11.6484148 93.2335085,11.8454326 94,12.0948454 L94.0412371,12.0948454 L94.0412371,24.8783505 C94.0625256,25.7359796 93.8993981,26.5881803 93.5628866,27.3773196 L93.5670103,27.3773196 Z M90.6268041,14.4742268 C90.3796215,14.3889391 90.1258459,14.324116 89.8680412,14.2804124 C89.4359888,14.2250661 89.000445,14.201635 88.5649485,14.2103093 C87.9695358,14.1974671 87.3780671,14.3098602 86.828866,14.5402062 C86.3509007,14.7467498 85.9190658,15.046791 85.5587629,15.4226804 C85.2115487,15.7896828 84.9446983,16.2250705 84.7752577,16.7010309 C84.6018229,17.1923914 84.513951,17.7098592 84.5154639,18.2309278 C84.4867522,19.1266507 84.7485858,20.0076267 85.2618557,20.742268 C85.7484536,21.414433 86.5525773,21.7525773 87.6453608,21.7525773 C88.4424526,21.8094558 89.2343976,21.5863111 89.8845361,21.1216495 C90.3835052,20.7092784 90.6309278,20.0371134 90.6309278,19.1257732 L90.6268041,14.4742268 Z M105.426804,14.8536082 C105.897402,15.3708708 106.138407,16.0566958 106.094845,16.7546392 L106.094845,24.7546392 L109.513402,24.7546392 L109.513402,16.7257732 C109.52189,15.9687503 109.407696,15.2153507 109.175258,14.4948454 C108.970111,13.8548316 108.637677,13.2629036 108.197938,12.7546392 C107.757624,12.2630652 107.210191,11.8792983 106.597938,11.6329897 C105.906078,11.3545962 105.166363,11.2144987 104.420619,11.2206186 C103.552869,11.1883519 102.690871,11.3740786 101.913402,11.7608247 C101.4097,12.0254435 100.945993,12.3600344 100.536082,12.7546392 L100.536082,5.98350515 L97.1670103,5.98350515 L97.1670103,24.7587629 L100.589691,24.7587629 L100.589691,17.5917526 C100.586081,17.13616 100.664297,16.6836202 100.820619,16.2556701 C100.969138,15.8580161 101.18849,15.4905674 101.468041,15.171134 C101.740907,14.8615408 102.076983,14.6140537 102.453608,14.4453608 C102.842828,14.2718197 103.264573,14.1832532 103.690722,14.185567 C104.335082,14.1621658 104.960934,14.4035658 105.42268,14.8536082 L105.426804,14.8536082 Z M119.587629,21.4804124 L119.538144,21.5175258 C119.263853,21.7203771 118.971166,21.8970938 118.663918,22.0453608 C118.272658,22.2080644 117.849998,22.2813255 117.426804,22.2597938 C116.963152,22.2976918 116.516254,22.0774124 116.263918,21.6865979 C115.989804,21.1684819 115.862873,20.5851702 115.896907,20 L115.896907,14.3257732 L119.418557,14.3257732 L119.418557,11.5216495 L115.896907,11.5216495 L115.896907,7.27010309 L112.474227,7.27010309 L112.474227,20.2226804 C112.468145,20.9015367 112.544301,21.5786312 112.701031,22.2391753 C112.833461,22.8134419 113.09115,23.3513509 113.45567,23.814433 C113.823164,24.2627551 114.298505,24.6103928 114.837113,24.8247423 C115.494438,25.0772207 116.195063,25.1977282 116.898969,25.1793814 C117.629075,25.1886568 118.355056,25.0685906 119.043299,24.8247423 C119.755046,24.547527 120.414582,24.1515262 120.993814,23.6536082 L121.035052,23.6206186 L119.587629,21.4804124 Z M76.6721649,9.58762887 L76.6721649,9.58762887 C77.7835668,9.58762887 78.6845361,8.68665962 78.6845361,7.57525773 C78.6845361,6.46385584 77.7835668,5.5628866 76.6721649,5.5628866 C75.5607631,5.5628866 74.6597938,6.46385584 74.6597938,7.57525773 C74.6597938,8.68665962 75.5607631,9.58762887 76.6721649,9.58762887 Z M0,24.7546392 L2.11134021,24.7546392 L2.11134021,15.9752577 L9.83505155,15.9752577 L9.83505155,13.9463918 L2.11134021,13.9463918 L2.11134021,7.9628866 L11.6701031,7.9628866 L11.6701031,5.93402062 L0,5.93402062 L0,24.7546392 Z M13.8680412,24.7546392 L15.8969072,24.7546392 L15.8969072,5.93402062 L13.8680412,5.93402062 L13.8680412,24.7546392 Z M19.3360825,24.7546392 L21.3649485,24.7546392 L21.3649485,11.5216495 L19.3360825,11.5216495 L19.3360825,24.7546392 Z M35.8845361,12.0948454 L36.1237113,12.2020619 L36.1237113,24.0783505 C36.1328654,24.9599407 36.019055,25.8385019 35.785567,26.6886598 C35.5754306,27.4557502 35.1868472,28.1622654 34.6515464,28.7505155 C34.0979493,29.3308941 33.4156847,29.7730242 32.6597938,30.0412371 C31.7423376,30.3569723 30.7762201,30.5077536 29.8061856,30.4865979 C29.234684,30.491262 28.6641481,30.4387672 28.1030928,30.3298969 C27.6409726,30.237786 27.1892353,30.0996401 26.7546392,29.9175258 C26.4139265,29.7748649 26.0844682,29.6066896 25.7690722,29.414433 C25.5371296,29.275313 25.3165149,29.118125 25.1092784,28.9443299 L24.8206186,28.6927835 L26.0123711,27.1381443 L26.3381443,27.4020619 C26.7292683,27.6897413 27.1527792,27.9305612 27.6,28.1195876 C29.0040429,28.6129862 30.5314793,28.6303764 31.9463918,28.1690722 C32.9293959,27.8074197 33.6621321,26.9722246 33.8927835,25.9505155 C34.0325321,25.3643652 34.1003854,24.7633786 34.0948454,24.1608247 L34.0948454,23.4226804 C33.9530375,23.5609085 33.8029307,23.6903585 33.6453608,23.8103093 C33.1863533,24.1697269 32.6798349,24.4639239 32.1402062,24.6845361 C31.4429299,24.969026 30.6952455,25.1093045 29.942268,25.0969072 C29.0266109,25.115968 28.1181467,24.9314582 27.2824742,24.556701 C26.5491327,24.2160643 25.9042393,23.7108743 25.3979381,23.0804124 C24.8916434,22.4329566 24.5188124,21.6914995 24.3010309,20.8989691 C24.0601081,20.0415384 23.9407305,19.1545348 23.9463918,18.2639175 C23.9357973,17.2736561 24.1266017,16.2915747 24.5072165,15.3773196 C24.8613285,14.531827 25.3912731,13.7713494 26.0618557,13.1463918 C26.7360599,12.5269733 27.5246884,12.0451115 28.3835052,11.7278351 C29.2968721,11.3909264 30.2636156,11.221886 31.2371134,11.228866 C32.1258225,11.2252714 33.0122377,11.3193061 33.8804124,11.5092784 C34.5652865,11.6414024 35.2362641,11.8374493 35.8845361,12.0948454 L35.8845361,12.0948454 Z M34.1195876,13.5917526 C33.9463918,13.5340206 33.7484536,13.4804124 33.5505155,13.4350515 C33.2659794,13.3649485 32.9278351,13.2989691 32.5360825,13.2371134 C32.096369,13.173647 31.652507,13.143321 31.2082474,13.1463918 C30.5294689,13.1436805 29.8554296,13.2595092 29.2164948,13.4886598 C28.6075525,13.7062514 28.0471615,14.041085 27.5670103,14.4742268 C27.0869434,14.9228558 26.7074635,15.4681825 26.4536082,16.0742268 C26.1684595,16.7727517 26.0281663,17.5219174 26.0412371,18.2762887 C26.0383175,18.9157758 26.1159032,19.5530874 26.2721649,20.1731959 C26.4096751,20.725246 26.6488043,21.2468554 26.9773196,21.7113402 C27.3015539,22.1508359 27.7255685,22.5070081 28.214433,22.7505155 C28.7964049,23.0247438 29.4353887,23.1562162 30.0783505,23.1340206 C30.7146123,23.1492959 31.3448472,23.00767 31.9134021,22.7216495 C32.3904208,22.4744075 32.8169968,22.1401398 33.171134,21.7360825 C33.4796786,21.3811223 33.7238937,20.9750275 33.8927835,20.5360825 C34.0260394,20.2161384 34.1041205,19.8759281 34.1237113,19.5298969 L34.1195876,13.5917526 Z M49.6989691,12.8247423 C49.2656213,12.2764137 48.6972173,11.8501107 48.0494845,11.5876289 C47.2881452,11.2956752 46.4770166,11.1555839 45.6618557,11.1752577 C45.0000445,11.1648696 44.3414584,11.2695178 43.7154639,11.4845361 C43.1933845,11.6677404 42.6982458,11.920164 42.243299,12.2350515 C41.8916182,12.4790028 41.5716374,12.7657388 41.2907216,13.0886598 L41.2907216,5.93402062 L39.2989691,5.93402062 L39.2989691,24.7587629 L41.3278351,24.7587629 L41.3278351,17.9505155 C41.3323989,17.3780805 41.42275,16.8095638 41.5958763,16.2639175 C41.7670941,15.7068154 42.0335815,15.1836071 42.3835052,14.7175258 C42.7335737,14.2523532 43.1775427,13.8659877 43.6865979,13.5835052 C44.2557069,13.2808353 44.8938334,13.1316074 45.5381443,13.1505155 C46.0305736,13.1427011 46.521351,13.2094357 46.9938144,13.3484536 C47.372815,13.4640412 47.7115467,13.6841453 47.971134,13.9835052 C48.2753907,14.3621086 48.4897128,14.8048529 48.5979381,15.2783505 C48.766155,15.9957228 48.8437363,16.7313604 48.828866,17.4680412 L48.828866,24.7587629 L50.8453608,24.7587629 L50.8453608,17.0597938 C50.8515767,16.2703869 50.7657746,15.482945 50.5896907,14.7134021 C50.4349788,14.0261121 50.1308764,13.3813025 49.6989691,12.8247423 L49.6989691,12.8247423 Z M59.3072165,22.2268041 C59.0846597,22.523529 58.8040533,22.7718657 58.4824742,22.956701 C58.1763993,23.0973948 57.8418535,23.1651509 57.5051546,23.1546392 C57.239585,23.1577639 56.9747618,23.1258742 56.7175258,23.0597938 C56.5164025,23.0038881 56.335877,22.8907015 56.1979381,22.7340206 C56.0080653,22.4934567 55.8793062,22.2104697 55.8226804,21.9092784 C55.7102771,21.359971 55.6604749,20.7996964 55.6742268,20.2391753 L55.6742268,13.4721649 L59.7979381,13.4721649 L59.7979381,11.5216495 L55.6742268,11.5216495 L55.6742268,7.39793814 L53.6453608,7.39793814 L53.6453608,20.5195876 C53.6273774,21.2472605 53.7148837,21.9737019 53.9051546,22.6762887 C54.0502745,23.2026672 54.3108879,23.6900847 54.6680412,24.1030928 C55.00074,24.4683353 55.4294196,24.7326877 55.9051546,24.8659794 C56.3807148,24.9960358 56.8719429,25.0598677 57.3649485,25.0556701 C58.0528832,25.0866741 58.7376296,24.9449047 59.356701,24.643299 C59.8872639,24.347013 60.3495188,23.9423644 60.7134021,23.4556701 L60.9360825,23.1670103 L59.6,21.8762887 L59.3072165,22.2268041 Z M20.3298969,6.59793814 C19.5897215,6.59793814 18.9896907,7.19796889 18.9896907,7.93814433 C18.9896907,8.67831977 19.5897215,9.27835052 20.3298969,9.27835052 C21.0700723,9.27835052 21.6701031,8.67831977 21.6701031,7.93814433 C21.6701031,7.19796889 21.0700723,6.59793814 20.3298969,6.59793814 L20.3298969,6.59793814 Z" id="Shape" fill="#63666A"></path>
                    <path d="M208.028866,0 L142.597938,0 C136.823508,0.00454455888 132.142904,4.68330401 132.136082,10.457732 L132.136082,39.1793814 L132.136082,39.1793814 C132.159925,39.4451484 132.38265,39.648787 132.649485,39.648787 C132.916319,39.648787 133.139044,39.4451484 133.162887,39.1793814 C133.169712,34.542744 136.930368,30.7876238 141.56701,30.7876289 L208.028866,30.7876289 C208.605064,30.7876289 209.072165,30.320528 209.072165,29.7443299 L209.072165,1.03917526 C209.069894,0.464588211 208.603458,-4.48838261e-06 208.028866,0 L208.028866,0 Z" id="Shape" fill="url(#linearGradient-7)"></path>
                    <path d="M160.123711,24.8164948 C159.936959,24.8164948 159.785567,24.6651025 159.785567,24.4783505 L159.785567,6.30927835 C159.785567,6.12252639 159.936959,5.97113402 160.123711,5.97113402 C160.310463,5.97113402 160.461856,6.12252639 160.461856,6.30927835 L160.461856,24.4783505 C160.461856,24.6651025 160.310463,24.8164948 160.123711,24.8164948 L160.123711,24.8164948 Z M182.841237,24.4783505 L182.841237,6.30927835 C182.841237,6.12252639 182.689845,5.97113402 182.503093,5.97113402 C182.316341,5.97113402 182.164948,6.12252639 182.164948,6.30927835 L182.164948,24.4783505 C182.164948,24.6651025 182.316341,24.8164948 182.503093,24.8164948 C182.689845,24.8164948 182.841237,24.6651025 182.841237,24.4783505 L182.841237,24.4783505 Z M177.068041,18.8989691 L173.558763,15.3938144 L177.063918,11.8845361 C177.154046,11.7930379 177.154046,11.6461373 177.063918,11.5546392 L175.134021,9.62474227 C175.040267,9.53624172 174.893754,9.53624172 174.8,9.62474227 L171.294845,13.1340206 L167.785567,9.62474227 C167.741423,9.58016776 167.681291,9.55508959 167.618557,9.55508959 C167.555822,9.55508959 167.495691,9.58016776 167.451546,9.62474227 L165.521649,11.5546392 C165.477075,11.5987836 165.451997,11.658915 165.451997,11.7216495 C165.451997,11.784384 165.477075,11.8445154 165.521649,11.8886598 L169.030928,15.3979381 L165.521649,18.9072165 C165.477075,18.9513609 165.451997,19.0114923 165.451997,19.0742268 C165.451997,19.1369613 165.477075,19.1970927 165.521649,19.2412371 L167.451546,21.171134 C167.495691,21.2157085 167.555822,21.2407867 167.618557,21.2407867 C167.681291,21.2407867 167.741423,21.2157085 167.785567,21.171134 L171.294845,17.6618557 L174.804124,21.171134 C174.8973,21.2570694 175.040844,21.2570694 175.134021,21.171134 L177.063918,19.2412371 C177.112181,19.1979672 177.140434,19.1366868 177.141996,19.0718851 C177.143557,19.0070835 177.118289,18.9445134 177.072165,18.8989691 L177.068041,18.8989691 Z M200.507216,12.1896907 L198.57732,10.2597938 C198.533175,10.2152193 198.473044,10.1901411 198.410309,10.1901411 C198.347575,10.1901411 198.287443,10.2152193 198.243299,10.2597938 L192.334021,16.1690722 L189.109278,12.9443299 C189.065134,12.8997554 189.005003,12.8746772 188.942268,12.8746772 C188.879534,12.8746772 188.819402,12.8997554 188.775258,12.9443299 L186.845361,14.8742268 C186.800786,14.9183712 186.775708,14.9785026 186.775708,15.0412371 C186.775708,15.1039716 186.800786,15.164103 186.845361,15.2082474 L192.164948,20.5278351 C192.209093,20.5724096 192.269224,20.5974877 192.331959,20.5974877 C192.394693,20.5974877 192.454825,20.5724096 192.498969,20.5278351 L200.503093,12.5237113 C200.548775,12.4806775 200.57535,12.421162 200.576899,12.3584216 C200.578448,12.2956811 200.554843,12.2349267 200.51134,12.1896907 L200.507216,12.1896907 Z M155.195876,10.4783505 C154.571376,9.85547435 153.560583,9.85547435 152.936082,10.4783505 L150.676289,12.7381443 L144.589691,11.0886598 C144.508468,11.0672756 144.422007,11.0908559 144.362887,11.1505155 L142.989691,12.5237113 C142.936514,12.5766667 142.91182,12.6518313 142.923232,12.7260056 C142.934643,12.8001799 142.980788,12.8644463 143.047423,12.8989691 L147.995876,15.4350515 L145.723711,17.7072165 L143.45567,16.7505155 C143.368262,16.7139795 143.267464,16.7334888 143.2,16.8 L142.342268,17.6247423 C142.25214,17.7162404 142.25214,17.863141 142.342268,17.9546392 L144.453608,20.0989691 C145.390359,21.0332833 146.906549,21.0332833 147.843299,20.0989691 L155.191753,12.7505155 L155.191753,12.7505155 C155.814629,12.1260153 155.814629,11.1152218 155.191753,10.4907216 L155.195876,10.4783505 Z" id="Shape" fill="#FFFFFF"></path>
                </g>
                <g id="wattx-logo" transform="translate(412.000000, 275.000000)">
                    <polygon id="Shape" fill="#20201F" fill-rule="nonzero" points="52.7592273 0.926590909 54.9081818 7.54527273 60.8383636 7.54527273 60.8359091 25.7236364 67.4545909 25.7236364 67.4545909 7.54527273 74.2291364 7.54527273 74.2217727 25.7236364 80.8429091 25.7236364 80.8441364 7.54527273 87.4628182 7.54527273 87.4628182 0.926590909"></polygon>
                    <g id="Group" transform="translate(86.890909, 6.833455)">
                        <g id="Clipped">
                            <g id="Shape-Clipped">
                                <mask id="mask-9" fill="white">
                                    <use xlink:href="#path-8"></use>
                                </mask>
                                <g id="path-8"></g>
                                <path d="M16.6786364,3.32468182 C17.0308636,3.32468182 17.3205,3.49036364 17.5696364,3.7395 C17.7782727,4.0095 17.9648182,4.09295455 18.171,4.09295455 C18.7318636,4.09295455 19.6658182,3.24 19.6658182,2.39072727 C19.6658182,1.54022727 18.981,0.689727273 18.0053182,0.689727273 C16.2208636,0.689727273 14.4364091,2.51590909 11.1571364,7.26790909 L10.3888636,5.10790909 C9.45490909,2.22381818 8.89527273,0.689727273 7.83613636,0.689727273 C6.68618182,0.689727273 5.24290909,2.06059091 3.74440909,4.023 C3.4733567,4.37459018 3.47084428,4.86400918 3.73827273,5.21836364 L4.01809091,5.58654545 C5.51290909,3.7395 6.17809091,3.28172727 6.61254545,3.28172727 C7.02736364,3.28172727 7.38081818,3.96654545 7.87663636,5.62704545 L9.288,9.82063636 C6.61254545,13.824 4.86859091,15.984 3.68672727,15.984 C3.35643345,15.9730018 3.04636245,15.8222047 2.83377273,15.5691818 C2.60672727,15.2991818 2.39931818,15.1335 2.15018182,15.1335 C1.38068182,15.1335 0.573136364,16.1079545 0.573136364,16.9989545 C0.531409091,18.0789545 1.38068182,18.8889545 2.39931818,18.8889545 C4.26722727,18.8889545 6.13513636,16.9596818 9.74577273,11.3976818 L11.0344091,15.2574545 C11.7597273,17.6874545 12.6936818,18.8901818 13.6264091,18.8901818 C14.8635,18.8901818 16.4344091,17.6322273 18.0310909,15.3568636 C18.2869103,14.9820482 18.2513398,14.4805043 17.9451818,14.1455455 L17.6960455,13.8669545 C16.5117273,15.3617727 15.5360455,16.1496818 14.8929545,16.1496818 C14.2081364,16.1496818 13.6681364,15.0500455 12.8176364,12.4150909 L11.5719545,8.76272727 C12.3819545,7.53913636 13.3146818,6.48 14.1664091,5.4 C15.2869091,4.0095 16.0969091,3.32590909 16.6774091,3.32590909" id="Shape" fill="#E84628" fill-rule="nonzero" mask="url(#mask-9)"></path>
                            </g>
                        </g>
                    </g>
                    <g id="Group" transform="translate(33.930409, 0.845591)">
                        <g id="Clipped">
                            <g id="Shape-Clipped">
                                <mask id="mask-11" fill="white">
                                    <use xlink:href="#path-10"></use>
                                </mask>
                                <g id="path-10"></g>
                                <polygon id="Shape" fill="#20201F" fill-rule="nonzero" mask="url(#mask-11)" points="15.5200909 0.081 8.56268182 0.081 0.505636364 24.8780455 7.46427273 24.8780455 12.0444545 10.7914091 16.6197273 24.8780455 23.5771364 24.8780455"></polygon>
                            </g>
                        </g>
                    </g>
                    <g id="Group" transform="translate(0.000000, 0.845591)">
                        <g id="Clipped">
                            <g id="Shape-Clipped">
                                <mask id="mask-13" fill="white">
                                    <use xlink:href="#path-12"></use>
                                </mask>
                                <g id="path-12"></g>
                                <polygon id="Shape" fill="#20201F" fill-rule="nonzero" mask="url(#mask-13)" points="32.2281818 0.081 27.6516818 14.1676364 23.0739545 0.081 16.1116364 0.081 11.5363636 14.1676364 6.95863636 0.081 0 0.081 8.05581818 24.8780455 15.0144545 24.8780455 19.5921818 10.7828182 24.1723636 24.8780455 31.131 24.8780455 39.1855909 0.081"></polygon>
                            </g>
                        </g>
                    </g>
                </g>
            </g>
        </g>
    </g>
</svg>