<svg width="24" height="22" viewBox="0 0 24 22" xmlns="http://www.w3.org/2000/svg"><title>Eintracht_Frankfurt_Logo Copy</title><desc>Created with Sketch.</desc><path d="M17.823 12.018c-.519-.198-.21.167-.099.244.77.542 3.037 2.082 4.109 2.771.154.099.175.208.001.393-.839.892-2.429-.13-3.057-.479-.733-.409-2.479-1.726-2.615-1.583-.053.056.048.548 1.124 1.701-.114.11-.234.213-.361.308 0 0 .515.624.868 1.009.143.156.474.486.565.469.09-.018.554-.519.712-.528.099-.005.313.149.473.058.216-.047.442-.015.638.089.245.114.2.691.133.435-.067-.255-.556-.247-.801.036-.129.135-.287.237-.463.3-.15.034-.225.081-.163.125.281.095.549.222.8.379.071.121.032.165.06.225.373.132.461.247.346.62l-.121.277c-.055-.101-.028-.43-.379-.507l-.165.044c-.284-.083-.546-.228-.767-.425-.094-.119-.072.068-.011.182.295.545.186.878.16.888-.068.025-.105-.025-.149.08-.105.325-.331.597-.63.76.117-.259.172-.542.163-.826l-.165-.028c-.086-.131-.136-.282-.143-.439.01-.227.134-.297.13-.434-.011-.101-.045-.199-.099-.285-.081.159-.178.308-.291.446-.273.289-.224.355-.509.239-.057-.024-.439.602-.439.602-.075-.181-.101-.379-.075-.573.027-.107.132-.155.205-.247.074-.093-.13-.211-.031-.359.551-.527.603-.347.745-.691.095-.232-.091-.389-.284-.621-.483-.582-.499-.577-.785-.917l-.351.275c-.538-.791-.999-1.503-1.503-1.69-.504-.186-.731.109-.717.414.024.54 1.104 1.699 1.104 1.699.384.368.737.767 1.053 1.195.088.154.147.323.174.498.021.241.005.484-.047.721v.001l-.09.401s-.162-.579-.198-.649c-.102-.197-.124 0-.278.388-.134.305-.294.599-.478.878l.005-.992c-.016-.257-.034-.603-.149-.346-.148.279-.311.55-.49.811l-.02-.446h.003l-.003-.001c-.05-.414-.145-.821-.282-1.215l.005-.001-.005-.001c-.079-.146-.429-.758-.855-.822-.425-.065-.462.693-.432.856.049.274.128.542.234.8.04.081.374.71.417.83.302.694.099 1.505-.495 1.974-.033-.392-.119-.777-.257-1.145-.085-.125-.205-.207-.292-.083-.219.414-.479.806-.774 1.17v.001h-.001v-.001c-.296-.364-.555-.756-.774-1.17-.088-.124-.207-.042-.292.083-.138.368-.224.753-.257 1.145-.593-.47-.797-1.28-.495-1.974.043-.12.377-.749.417-.83.106-.257.184-.525.233-.8.029-.163-.007-.921-.432-.856-.426.064-.776.676-.855.822l-.004.001.004.001c-.137.394-.232.801-.281 1.215l-.003.001h.003l-.021.446c-.178-.261-.342-.531-.49-.811-.116-.257-.133.089-.149.346l.004.992c-.183-.279-.343-.572-.478-.878-.154-.388-.176-.585-.278-.388-.036.07-.198.649-.198.649l-.09-.401v-.001c-.052-.236-.068-.479-.047-.721.027-.175.086-.344.174-.498.317-.427.669-.827 1.053-1.195 0 0 1.081-1.16 1.105-1.699.013-.306-.214-.6-.718-.414s-.965.899-1.503 1.69l-.352-.275c-.286.34-.302.335-.785.917-.193.232-.379.389-.283.621.141.344.193.163.744.691.099.148-.105.266-.031.359.073.093.177.141.205.247.026.194 0 .392-.075.573 0 0-.381-.626-.439-.602-.286.116-.236.049-.509-.239-.112-.138-.21-.288-.291-.446-.054.086-.088.184-.099.285-.003.136.121.206.13.434-.007.156-.056.308-.143.439l-.165.028c-.01.284.046.567.163.826-.299-.164-.525-.436-.63-.76-.045-.105-.082-.054-.149-.08-.026-.01-.135-.343.16-.888.061-.113.083-.3-.01-.182-.222.196-.484.341-.768.425l-.165-.044c-.351.077-.324.406-.378.507l-.121-.277c-.116-.373-.028-.488.345-.62.028-.06-.01-.105.061-.225.251-.157.519-.284.8-.379.062-.044-.013-.091-.163-.125-.175-.063-.334-.165-.463-.3-.244-.283-.733-.292-.801-.036-.067.255-.113-.321.133-.435.195-.104.421-.136.638-.089.16.091.374-.063.473-.058.158.009.622.51.713.528.09.017.422-.313.564-.469.353-.385.868-1.009.868-1.009-.126-.095-.247-.198-.36-.308 1.076-1.153 1.176-1.645 1.123-1.701-.135-.144-1.882 1.174-2.614 1.583-.629.35-2.218 1.372-3.057.479-.174-.185-.152-.294.001-.393 1.072-.689 3.339-2.229 4.109-2.771.111-.077.42-.442-.099-.244-1.241.543-2.575.842-3.93.883-1.435.05-2.002-.843-1.529-.997.189-.062 4.284-1.22 4.284-1.22s.507-.198.127-.239c-.945.001-1.887-.106-2.808-.321-.887-.363-1.043-1.164-.836-1.153 1.782.093 3.453.06 3.559.048l.031-.004s.197-.066.021-.222c-.194-.171-1.478-1.242-1.75-1.515-.707-.712-.226-1.751-.108-1.639.842.787 1.781 1.464 2.795 2.012.091.017.066-.195-.006-.348-.251-.339-.455-.711-.606-1.105-.345-1.29-.257-2.103.471-2.412.132-.057.181.017.352.417.172.4.238 1.1.889 1.372.333.139.949.708.959.935.009.227-.127.583.049.704.139.096.376-.073.583.099.208.172.809.78 1.019.936.211.157.627.409.888.265.672-.312.581-1.394.554-1.531l-.01-.183s-.327.341-.386.279c-.147-.119-.286-.249-.413-.389-.013-.061.108-.073.426-.065.317.008.349-.066.337-.172-.026-.175-.089-.343-.184-.492-.074-.063-.182.026-.319.038-.444.031-.888-.065-1.28-.276-.065-.049.024-.332.024-.332.306.113.638.132.954.055.147-.025.264-.081.161-.426-.368.15-.759.237-1.157.256-1.308.018-1.271-.462-1.143-.746.072-.161.261-.223.258-.164-.009.164.028.445.665.479.439.034.88.005 1.31-.088-.021-.132-.053-.261-.095-.388-.052-.177-.101-.364-.512-.255-.294.092-.573.228-.827.402l-.113-.306s-.043-.091.081-.194c.294-.171.603-.313.925-.423.473-.146.958-.249 1.45-.307.212-.01.949-.09 1.037.018.23.239.552.368.883.356.562.035.825.087 1.018-.094.091-.09.165-.196.219-.311 0 0 .105.607-.096.769-.2.161-.553.331-.653.678-.08.214-.086.45-.017.668.052.208.112.303.346.281.184.001.361-.077.484-.214.052.186.023.386-.079.55-.102.164-.268.278-.458.314-.136.018-.273.014-.408-.011 0 0-.278 1.661.295 2.225.261.144.678-.108.888-.265.21-.157.812-.765 1.019-.936.208-.172.444-.003.583-.099.176-.121.04-.476.049-.704.01-.227.626-.796.959-.935.652-.272.719-.972.889-1.372.171-.4.22-.474.352-.417.728.309.816 1.122.471 2.412-.151.394-.355.766-.606 1.105-.071.153-.096.365-.006.348 1.014-.548 1.953-1.224 2.795-2.012.118-.112.599.927-.108 1.639-.272.273-1.556 1.344-1.75 1.515-.176.155.021.222.021.222l.031.004c.106.012 1.778.045 3.56-.048.207-.011.051.79-.836 1.153-.92.215-1.863.322-2.808.321-.379.04.127.239.127.239s4.095 1.158 4.284 1.22c.473.154-.094 1.047-1.529.997-1.354-.04-2.688-.34-3.93-.883zm-4.105-11.083s-.325.485-.526.818c-.128.248-.183.527-.16.805h-2.881c.023-.278-.033-.557-.16-.805-.201-.333-.526-.818-.526-.818.015.001 1.17.495 1.274.573l.85-.751v-.006l.003.003.003-.003v.006l.851.751c.104-.078 1.257-.572 1.273-.573zm-3.071 3.08c.034.175.08.348.138.518l.744-.6c-.294-.08-.608-.051-.882.082zm3.258 6.774c.011.117.011.234 0 .351.522 0 1.597-.389 2.586-2.192.664.554 1.098.398 1.098.398l.001-.001c-.23-.347-.604-.573-1.019-.614.832-.731.558-1.343.558-1.343l-.001-.001s-.646.177-.682 1.282c-.295-.292-.706-.437-1.119-.394l-.001.001s.145.433 1.005.596c-.907 1.589-1.765 1.801-2.425 1.917zm-3.647-1.11c.019.648.088 1.293.206 1.93.144.872.448 1.709.897 2.47.108.18.23.35.366.509v.007l.003-.004.003.004.001-.007c.135-.159.258-.329.365-.509.449-.761.753-1.598.897-2.47.118-.637.187-1.282.206-1.93-.01.01-2.933.01-2.943 0zm-.704 1.11c-.66-.116-1.518-.328-2.425-1.917.86-.163 1.005-.596 1.005-.596l-.001-.001c-.413-.043-.824.101-1.119.394-.036-1.104-.682-1.282-.682-1.282l-.001.001s-.274.612.558 1.343c-.415.041-.789.267-1.019.614l.001.001s.434.156 1.098-.398c.989 1.802 2.064 2.192 2.586 2.192-.011-.117-.011-.234 0-.351zm2.987 2.045h-1.519v-2.507h1.411v.385h-.84v.618h.846v.385h-.846v.733h.948v.386z" fill="#8A8A8D" fill-rule="nonzero"/></svg>