<?xml version="1.0" encoding="utf-8"?>
<!-- Generator: Adobe Illustrator 20.1.0, SVG Export Plug-In . SVG Version: 6.00 Build 0)  -->
<svg version="1.1" id="Ebene_1" xmlns="http://www.w3.org/2000/svg" xmlns:xlink="http://www.w3.org/1999/xlink" x="0px" y="0px"
	 viewBox="0 0 438 78" style="enable-background:new 0 0 438 78;" xml:space="preserve">
<style type="text/css">
	.st0{fill:#1D1D1B;}
</style>
<g>
	<g>
		<g>
			<path class="st0" d="M130.3,57.2c0,8.2-1.9,14.4-9.3,20.2l-8.1-6.8c4.2-4,5.6-7,5.7-11.9l-6.5,0V40.3h18.2V57.2z"/>
			<rect x="112.3" y="9.8" class="st0" width="18" height="18.3"/>
		</g>
		<polygon class="st0" points="0,58.7 0,0.7 43.6,0.7 43.6,14.5 17.5,14.5 17.5,24.7 41.6,24.7 41.6,38.5 17.5,38.5 17.5,58.7 		"/>
		<path class="st0" d="M84.3,58.7V36H67.3v22.7H49.4v-58h17.9v20.4h16.9V0.7h18v58H84.3z"/>
		<path class="st0" d="M140.5,58.7v-58h24.8c11.4,0,16.3,1.2,19.8,3.5c5.1,3.4,7.6,8.9,7.6,16.1c0,6.7-2.6,12.5-7.3,15.9
			c-4,2.9-9.3,4.3-18.3,4.3h-8.8v18.2H140.5z M165.1,27c3.5,0,6-0.5,7.4-1.6c1.3-1.1,1.8-2.7,1.8-4.6c0-1.8-0.5-3.4-1.8-4.6
			c-1.3-1.2-3.4-1.6-7.1-1.6h-7.1V27H165.1z"/>
	</g>
	<g>
		<path class="st0" d="M223.8,2.8v3.8h3.8v2h-3.8v5.7h-2.7V0.7h7v2.1H223.8z"/>
		<path class="st0" d="M235.6,14.3l-0.2-1c-0.9,0.7-1.8,1.3-3.1,1.3c-2,0-3.1-1-3.1-2.9c0-2.1,1.7-3.5,5.2-3.5h0.6V7.4
			c0-1-0.6-1.5-1.9-1.5c-1,0-2.2,0.3-3.1,0.6l-0.3-1.6c1.2-0.5,2.5-0.9,4.1-0.9c2.6,0,3.8,1.2,3.8,3.1v7.2H235.6z M235,9.7h-0.8
			c-2,0-2.5,0.6-2.5,1.6c0,0.8,0.5,1.3,1.4,1.3c0.6,0,1.3-0.3,1.9-0.9V9.7z"/>
		<path class="st0" d="M243.9,14.5c-2.7,0-4-1.7-4-5.1c0-3.2,1.6-5.4,4.2-5.4c1.3,0,2.3,0.5,3,1.3l-0.9,1.3c-0.5-0.4-1-0.7-1.7-0.7
			c-1.2,0-1.9,1.1-1.9,3.2c0,2.5,0.7,3.4,1.8,3.4c0.8,0,1.5-0.3,2.1-0.8l0.8,1.3C246.6,13.8,245.5,14.5,243.9,14.5z"/>
		<path class="st0" d="M257.5,14.3h-2.6c0-2.1,0.1-4.2,0.1-5.3c0-2.4-0.5-3-1.4-3c-0.5,0-1.2,0.3-1.9,0.8v7.4h-2.6V0h2.6v5.1
			c0.7-0.6,1.7-1.1,2.8-1.1c2,0,3.1,1.3,3.1,4.6C257.6,9.8,257.5,12.1,257.5,14.3z"/>
		<path class="st0" d="M268.8,14.3h-2.6c0-2.1,0.1-4.2,0.1-5.3c0-2.4-0.5-3-1.4-3c-0.5,0-1.2,0.3-1.9,0.8v7.4h-2.6V0h2.6v5.1
			c0.7-0.6,1.7-1.1,2.8-1.1c2,0,3.1,1.3,3.1,4.6C268.9,9.8,268.8,12.1,268.8,14.3z"/>
		<path class="st0" d="M275.6,14.5c-2.9,0-4.5-1.5-4.5-5.1c0-3.7,1.9-5.5,4.9-5.5c2.9,0,4.5,1.5,4.5,5.1
			C280.5,12.8,278.6,14.5,275.6,14.5z M275.8,5.9c-1.2,0-2,0.8-2,3.1c0,2.8,0.7,3.6,2,3.6c1.2,0,2-0.8,2-3.1
			C277.9,6.6,277.1,5.9,275.8,5.9z"/>
		<path class="st0" d="M286.4,14.5c-2.7,0-4-1.7-4-5.1c0-3.2,1.6-5.4,4.2-5.4c1.3,0,2.3,0.5,3,1.3l-0.9,1.3c-0.5-0.4-1-0.7-1.7-0.7
			c-1.2,0-1.9,1.1-1.9,3.2c0,2.5,0.7,3.4,1.8,3.4c0.8,0,1.5-0.3,2.1-0.8l0.8,1.3C289,13.8,287.9,14.5,286.4,14.5z"/>
		<path class="st0" d="M299.9,14.3h-2.6c0-2.1,0.1-4.2,0.1-5.3c0-2.4-0.5-3-1.4-3c-0.5,0-1.2,0.3-1.9,0.8v7.4h-2.6V0h2.6v5.1
			c0.7-0.6,1.7-1.1,2.8-1.1c2,0,3.1,1.3,3.1,4.6C300,9.8,299.9,12.1,299.9,14.3z"/>
		<path class="st0" d="M305.2,14.5c-1.1,0-2.2-0.3-3.1-0.8l0.2-1.4c1.2,0.3,1.8,0.3,2.5,0.3c1.3,0,1.8-0.5,1.8-1.1
			c0-0.7-0.3-1-1.8-1.5c-1.9-0.7-2.7-1.5-2.7-3c0-1.8,1.5-3.1,3.7-3.1c0.9,0,1.8,0.2,2.8,0.7L308.3,6c-0.8-0.2-1.4-0.3-2-0.3
			c-1,0-1.5,0.5-1.5,1c0,0.6,0.3,0.9,1.8,1.4c2,0.7,2.7,1.6,2.7,3.1C309.3,13.1,307.8,14.5,305.2,14.5z"/>
		<path class="st0" d="M315,14.5c-2.7,0-4-1.7-4-5.1c0-3.2,1.6-5.4,4.2-5.4c1.3,0,2.3,0.5,3,1.3l-0.9,1.3c-0.5-0.4-1-0.7-1.7-0.7
			c-1.2,0-1.9,1.1-1.9,3.2c0,2.5,0.7,3.4,1.8,3.4c0.8,0,1.5-0.3,2.1-0.8l0.8,1.3C317.6,13.8,316.5,14.5,315,14.5z"/>
		<path class="st0" d="M328.5,14.3h-2.6c0-2.1,0.1-4.2,0.1-5.3c0-2.4-0.5-3-1.4-3c-0.5,0-1.2,0.3-1.9,0.8v7.4h-2.6V0h2.6v5.1
			c0.7-0.6,1.7-1.1,2.8-1.1c2,0,3.1,1.3,3.1,4.6C328.6,9.8,328.5,12.1,328.5,14.3z"/>
		<path class="st0" d="M337.7,14.3l-0.2-1.1c-0.9,0.8-1.9,1.3-3,1.3c-2.1,0-3.1-1.3-3.1-4.6c0-1.3,0.1-3.5,0.1-5.7h2.6
			c0,2-0.1,4.1-0.1,5.3c0,2.4,0.5,2.9,1.4,2.9c0.6,0,1.2-0.3,1.9-0.8V4.2h2.6v10.1H337.7z"/>
		<path class="st0" d="M344.7,14.5c-1.3,0-2-0.4-2-2V0h2.6v11.4c0,1.1,0.1,1.3,0.7,1.3c0.2,0,0.4,0,0.5,0l0.1,1.5
			C346.1,14.4,345.5,14.5,344.7,14.5z"/>
		<path class="st0" d="M350.5,9.8v0.1c0,1.9,0.8,2.6,2.3,2.6c0.9,0,2.1-0.2,3.3-0.6l0.4,1.5c-1.2,0.6-2.7,1.1-4.2,1.1
			c-2.6,0-4.4-1.3-4.4-5c0-3.6,1.8-5.5,4.6-5.5c2.6,0,4.3,1.5,4,5.8H350.5z M353.9,8.1c0-1.6-0.5-2.4-1.6-2.4c-1.1,0-1.7,1-1.8,2.4
			L353.9,8.1L353.9,8.1z"/>
		<path class="st0" d="M367.6,9.7H367v4.6h-2.7V0.7c1.3,0,2.6,0,4,0c3.7,0,5,1.7,5,4.3C373.3,7.7,371.8,9.7,367.6,9.7z M367.8,2.6
			H367v5.1h0.8c1.8,0,2.6-0.9,2.6-2.5C370.4,3.5,369.7,2.6,367.8,2.6z"/>
		<path class="st0" d="M379.1,14.5c-2.9,0-4.5-1.5-4.5-5.1c0-3.7,1.9-5.5,4.9-5.5c2.9,0,4.5,1.5,4.5,5.1
			C384,12.8,382.1,14.5,379.1,14.5z M379.3,5.9c-1.2,0-2,0.8-2,3.1c0,2.8,0.7,3.6,2,3.6c1.2,0,2-0.8,2-3.1
			C381.3,6.6,380.6,5.9,379.3,5.9z"/>
		<path class="st0" d="M389,14.5c-1.9,0-2.6-0.7-2.6-2.6V6h-1.3V4.2h1.4c0.2-0.9,0.4-1.8,0.6-2.9h1.9v2.9h2.2V6H389v5.2
			c0,1,0.2,1.4,0.9,1.4c0.3,0,0.7,0,1.4-0.2l0.2,1.5C390.6,14.3,389.8,14.5,389,14.5z"/>
		<path class="st0" d="M395.9,14.5c-1.1,0-2.2-0.3-3.1-0.8l0.2-1.4c1.2,0.3,1.8,0.3,2.5,0.3c1.3,0,1.8-0.5,1.8-1.1
			c0-0.7-0.3-1-1.8-1.5c-1.9-0.7-2.7-1.5-2.7-3c0-1.8,1.5-3.1,3.7-3.1c0.9,0,1.8,0.2,2.8,0.7L399.1,6c-0.8-0.2-1.4-0.3-2-0.3
			c-1,0-1.5,0.5-1.5,1c0,0.6,0.3,0.9,1.8,1.4c2,0.7,2.7,1.6,2.7,3.1C400.1,13.1,398.5,14.5,395.9,14.5z"/>
		<path class="st0" d="M408.3,14.3l-0.2-1c-0.8,0.7-1.8,1.3-2.8,1.3c-2.4,0-3.5-2.2-3.5-4.9c0-4.1,2.2-5.7,5-5.7
			c0.4,0,0.9,0,1.1,0.1V0h2.6v14.3H408.3z M407.8,6c-0.4-0.1-0.8-0.2-1.2-0.2c-1.3,0-2.2,1.1-2.2,3.5c0,2.1,0.6,3.2,1.7,3.2
			c0.5,0,1.1-0.3,1.8-0.8V6z"/>
		<path class="st0" d="M419.1,14.3l-0.2-1c-0.9,0.7-1.8,1.3-3.1,1.3c-2,0-3.1-1-3.1-2.9c0-2.1,1.7-3.5,5.2-3.5h0.6V7.4
			c0-1-0.6-1.5-1.9-1.5c-1,0-2.2,0.3-3.1,0.6l-0.3-1.6c1.2-0.5,2.5-0.9,4.1-0.9c2.6,0,3.8,1.2,3.8,3.1v7.2H419.1z M418.5,9.7h-0.8
			c-2,0-2.5,0.6-2.5,1.6c0,0.8,0.5,1.3,1.4,1.3c0.6,0,1.3-0.3,1.9-0.9V9.7z"/>
		<path class="st0" d="M437.9,14.3h-2.6c0-2,0.1-4.1,0.1-5.3c0-2.4-0.4-3-1.3-3c-0.5,0-1.3,0.4-1.9,0.9c0.1,0.3,0.1,0.8,0.1,1.5v5.8
			h-2.6V9c0-2.4-0.4-3-1.3-3c-0.5,0-1.2,0.3-1.8,0.8v7.4H424V4.2h2.1l0.2,1.1c0.8-0.7,1.8-1.3,3-1.3c1.2,0,2.1,0.6,2.5,1.5
			c1-0.9,2-1.5,3.2-1.5c2,0,3,1.3,3,4.6C438,9.8,437.9,12.1,437.9,14.3z"/>
		<path class="st0" d="M225.9,36.7c-3.2,0-4.9-1.4-4.9-4.8v-9h2.7v8.7c0,2.3,0.7,3.1,2.4,3.1c1.5,0,2.4-0.7,2.4-3v-8.9h2.7v8.7
			C231.2,35.3,229,36.7,225.9,36.7z"/>
		<path class="st0" d="M242.7,36.5h-2.6c0-2,0.1-4.1,0.1-5.3c0-2.4-0.5-2.9-1.4-2.9c-0.5,0-1.2,0.3-1.9,0.8v7.4h-2.6V26.4h2.1
			l0.2,1.1c0.9-0.8,1.9-1.3,3.1-1.3c2,0,3.1,1.3,3.1,4.6C242.8,32,242.7,34.3,242.7,36.5z"/>
		<path class="st0" d="M247,25.1c-1.2,0-1.6-0.3-1.6-1.4c0-1,0.3-1.4,1.6-1.4c1.3,0,1.5,0.3,1.5,1.4C248.5,24.7,248.2,25.1,247,25.1
			z M245.6,36.5V26.4h2.6v10.1H245.6z"/>
		<path class="st0" d="M256.4,36.5H253l-2.9-10.1h2.8l1.6,5.7l0.4,2c0.8-2.7,1.4-5.2,1.7-7.7h2.7C258.8,29.9,257.8,33.3,256.4,36.5z
			"/>
		<path class="st0" d="M263.2,31.9v0.1c0,1.9,0.8,2.6,2.3,2.6c0.9,0,2.1-0.2,3.3-0.6l0.4,1.5c-1.2,0.6-2.7,1.1-4.2,1.1
			c-2.6,0-4.4-1.3-4.4-5c0-3.6,1.8-5.5,4.6-5.5c2.6,0,4.3,1.5,4,5.8H263.2z M266.7,30.3c0-1.6-0.5-2.4-1.6-2.4c-1.1,0-1.7,1-1.8,2.4
			L266.7,30.3L266.7,30.3z"/>
		<path class="st0" d="M277.2,28.7c-0.4-0.1-0.7-0.1-0.9-0.1c-0.6,0-1,0.4-2,1.5v6.4h-2.6V26.4h2.1L274,28c1-1.4,1.7-1.8,2.4-1.8
			c0.3,0,0.6,0.1,1,0.2L277.2,28.7z"/>
		<path class="st0" d="M281.7,36.7c-1.1,0-2.2-0.3-3.1-0.8l0.2-1.4c1.1,0.3,1.8,0.3,2.5,0.3c1.3,0,1.8-0.5,1.8-1.1
			c0-0.7-0.3-1-1.8-1.5c-1.9-0.7-2.7-1.5-2.7-3c0-1.8,1.5-3.1,3.7-3.1c0.9,0,1.8,0.2,2.8,0.7l-0.3,1.3c-0.8-0.2-1.4-0.3-2-0.3
			c-1,0-1.5,0.5-1.5,1c0,0.6,0.3,0.9,1.8,1.4c2,0.7,2.7,1.6,2.7,3.1C285.8,35.3,284.3,36.7,281.7,36.7z"/>
		<path class="st0" d="M289.3,25.1c-1.2,0-1.6-0.3-1.6-1.4c0-1,0.3-1.4,1.6-1.4c1.3,0,1.5,0.3,1.5,1.4
			C290.8,24.7,290.5,25.1,289.3,25.1z M287.9,36.5V26.4h2.6v10.1H287.9z"/>
		<path class="st0" d="M296.2,36.7c-1.9,0-2.6-0.7-2.6-2.6v-5.8h-1.3v-1.8h1.4c0.2-0.9,0.4-1.8,0.6-2.9h1.9v2.9h2.2v1.8h-2.2v5.2
			c0,1,0.2,1.4,0.9,1.4c0.3,0,0.7,0,1.4-0.2l0.2,1.5C297.8,36.5,297,36.7,296.2,36.7z"/>
		<path class="st0" d="M301.1,40.1c-0.4,0-1-0.1-1.5-0.4v-1.5c0.3,0,0.8,0.1,1,0.1c0.6,0,1.1-0.1,1.5-0.4c0.4-0.4,0.6-0.7,0.6-1.2
			c0-0.4-0.1-1-0.5-2l-2.5-8.2h2.8L304,32c0.3,1,0.5,1.9,0.4,2.5c0.8-2.4,1.5-5.5,1.7-8.2h2.7C307.2,36.9,303.9,40.1,301.1,40.1z"/>
		<path class="st0" d="M319,36.7c-2.9,0-4.5-1.5-4.5-5.1c0-3.7,1.9-5.5,4.9-5.5c2.9,0,4.5,1.5,4.5,5.1C323.9,35,322,36.7,319,36.7z
			 M319.2,28.1c-1.2,0-2,0.8-2,3.1c0,2.8,0.7,3.6,2,3.6c1.2,0,2-0.8,2-3.1C321.2,28.8,320.5,28.1,319.2,28.1z"/>
		<path class="st0" d="M331.3,24.1c-0.4-0.2-0.8-0.2-1.2-0.2c-0.8,0-1.1,0.4-1.1,1.3v1.3h1.8v1.8h-1.8v8.3h-2.6v-8.3h-1.3v-1.8h1.3
			v-1.2c0-2,0.8-3.2,2.8-3.2c1,0,1.8,0.3,2.4,0.6L331.3,24.1z"/>
		<path class="st0" d="M228,58.7c-0.2-0.8-0.4-1.9-0.6-2.7h-4.5c-0.2,0.8-0.4,1.8-0.6,2.7h-2.6c1-4.5,2.3-9.2,3.8-13.6h3.6
			c1.6,4.7,2.8,9,3.8,13.6H228z M225.1,47.5c-0.6,1.9-1.2,4.4-1.8,6.5h3.6C226.4,51.9,225.8,49.6,225.1,47.5z"/>
		<path class="st0" d="M236.4,58.9c-0.3,0-0.7,0-1.1-0.1v3.3h-2.6V48.6h2.1l0.2,1c0.8-0.7,1.8-1.3,2.8-1.3c2.4,0,3.6,2.2,3.6,4.9
			C241.5,57.2,239.3,58.9,236.4,58.9z M237.2,50.3c-0.5,0-1.1,0.3-1.8,0.8v5.6c0.3,0.1,0.8,0.2,1.2,0.2c1.3,0,2.2-1.1,2.2-3.5
			C238.8,51.5,238.2,50.3,237.2,50.3z"/>
		<path class="st0" d="M247.5,58.9c-0.3,0-0.7,0-1.1-0.1v3.3h-2.6V48.6h2.1l0.2,1c0.8-0.7,1.8-1.3,2.8-1.3c2.4,0,3.6,2.2,3.6,4.9
			C252.5,57.2,250.4,58.9,247.5,58.9z M248.2,50.3c-0.5,0-1.1,0.3-1.8,0.8v5.6c0.3,0.1,0.8,0.2,1.2,0.2c1.3,0,2.2-1.1,2.2-3.5
			C249.9,51.5,249.3,50.3,248.2,50.3z"/>
		<path class="st0" d="M256.9,58.8c-1.3,0-2-0.4-2-2V44.4h2.6v11.4c0,1.1,0.1,1.3,0.7,1.3c0.2,0,0.4,0,0.5,0l0.1,1.5
			C258.3,58.7,257.7,58.8,256.9,58.8z"/>
		<path class="st0" d="M262.1,47.3c-1.2,0-1.6-0.3-1.6-1.4c0-1,0.3-1.4,1.6-1.4c1.3,0,1.5,0.3,1.5,1.4
			C263.6,46.9,263.3,47.3,262.1,47.3z M260.8,58.7V48.6h2.6v10.1H260.8z"/>
		<path class="st0" d="M268.4,54.1v0.1c0,1.9,0.8,2.6,2.3,2.6c0.9,0,2.1-0.2,3.3-0.6l0.4,1.5c-1.2,0.6-2.7,1.1-4.2,1.1
			c-2.6,0-4.4-1.3-4.4-5c0-3.6,1.8-5.5,4.6-5.5c2.6,0,4.3,1.5,4,5.8H268.4z M271.8,52.5c0-1.6-0.5-2.4-1.6-2.4c-1.1,0-1.7,1-1.8,2.4
			L271.8,52.5L271.8,52.5z"/>
		<path class="st0" d="M282.9,58.7l-0.2-1c-0.8,0.7-1.8,1.3-2.8,1.3c-2.4,0-3.5-2.2-3.5-4.9c0-4.1,2.2-5.7,5-5.7
			c0.4,0,0.9,0,1.1,0.1v-4h2.6v14.3H282.9z M282.4,50.4c-0.4-0.1-0.8-0.2-1.2-0.2c-1.3,0-2.2,1.1-2.2,3.5c0,2.1,0.6,3.2,1.7,3.2
			c0.5,0,1.1-0.3,1.8-0.8V50.4z"/>
		<path class="st0" d="M296.6,58.9c-1.6,0-2.9-0.5-4.1-1.3l0.6-1.4c1.1,0.4,2.2,0.7,2.9,0.7c1.4,0,2.3-0.6,2.3-1.8
			c0-2.7-5.7-2.1-5.7-6.4c0-2.3,1.8-3.8,4.4-3.8c1.3,0,2.5,0.3,3.6,1.1l-0.6,1.4c-0.9-0.3-1.8-0.5-2.5-0.5c-1.4,0-2,0.6-2,1.6
			c0,2.7,5.8,2.2,5.8,6.4C301.3,57.1,299.6,58.9,296.6,58.9z"/>
		<path class="st0" d="M307,58.9c-2.7,0-4-1.7-4-5.1c0-3.2,1.6-5.4,4.2-5.4c1.3,0,2.3,0.5,3,1.3l-0.9,1.3c-0.5-0.4-1-0.7-1.7-0.7
			c-1.2,0-1.9,1.1-1.9,3.2c0,2.5,0.7,3.4,1.8,3.4c0.8,0,1.5-0.3,2.1-0.8l0.8,1.3C309.7,58.2,308.6,58.9,307,58.9z"/>
		<path class="st0" d="M313.7,47.3c-1.2,0-1.6-0.3-1.6-1.4c0-1,0.3-1.4,1.6-1.4c1.3,0,1.5,0.3,1.5,1.4
			C315.3,46.9,315,47.3,313.7,47.3z M312.4,58.7V48.6h2.6v10.1H312.4z"/>
		<path class="st0" d="M320,54.1v0.1c0,1.9,0.8,2.6,2.3,2.6c0.9,0,2.1-0.2,3.3-0.6l0.4,1.5c-1.2,0.6-2.7,1.1-4.2,1.1
			c-2.6,0-4.4-1.3-4.4-5c0-3.6,1.8-5.5,4.6-5.5c2.6,0,4.3,1.5,4,5.8H320z M323.5,52.5c0-1.6-0.5-2.4-1.6-2.4c-1.1,0-1.7,1-1.8,2.4
			L323.5,52.5L323.5,52.5z"/>
		<path class="st0" d="M336.9,58.7h-2.6c0-2,0.1-4.1,0.1-5.3c0-2.4-0.5-2.9-1.4-2.9c-0.5,0-1.2,0.3-1.9,0.8v7.4h-2.6V48.6h2.1
			l0.2,1.1c0.9-0.8,1.9-1.3,3.1-1.3c2,0,3.1,1.3,3.1,4.6C337,54.2,336.9,56.5,336.9,58.7z"/>
		<path class="st0" d="M343.3,58.9c-2.7,0-4-1.7-4-5.1c0-3.2,1.6-5.4,4.2-5.4c1.3,0,2.3,0.5,3,1.3l-0.9,1.3c-0.5-0.4-1-0.7-1.7-0.7
			c-1.2,0-1.9,1.1-1.9,3.2c0,2.5,0.7,3.4,1.8,3.4c0.8,0,1.5-0.3,2.1-0.8l0.8,1.3C345.9,58.2,344.8,58.9,343.3,58.9z"/>
		<path class="st0" d="M350.4,54.1v0.1c0,1.9,0.8,2.6,2.3,2.6c0.9,0,2.1-0.2,3.3-0.6l0.4,1.5c-1.2,0.6-2.7,1.1-4.2,1.1
			c-2.6,0-4.4-1.3-4.4-5c0-3.6,1.8-5.5,4.6-5.5c2.6,0,4.3,1.5,4,5.8H350.4z M353.9,52.5c0-1.6-0.5-2.4-1.6-2.4c-1.1,0-1.7,1-1.8,2.4
			L353.9,52.5L353.9,52.5z"/>
		<path class="st0" d="M361.3,58.9c-1.1,0-2.2-0.3-3.1-0.8l0.2-1.4c1.1,0.3,1.8,0.3,2.5,0.3c1.3,0,1.8-0.5,1.8-1.1
			c0-0.7-0.3-1-1.8-1.5c-1.9-0.7-2.7-1.5-2.7-3c0-1.8,1.5-3.1,3.7-3.1c0.9,0,1.8,0.2,2.8,0.7l-0.3,1.3c-0.8-0.2-1.4-0.3-2-0.3
			c-1,0-1.5,0.5-1.5,1c0,0.6,0.3,0.9,1.8,1.4c2,0.7,2.7,1.6,2.7,3.1C365.4,57.5,363.9,58.9,361.3,58.9z"/>
	</g>
</g>
</svg>
