<?xml version="1.0" encoding="UTF-8"?>
<svg width="189px" height="59px" viewBox="0 0 189 59" version="1.1" xmlns="http://www.w3.org/2000/svg" xmlns:xlink="http://www.w3.org/1999/xlink">
    <!-- Generator: Sketch 41.2 (35397) - http://www.bohemiancoding.com/sketch -->
    <title>noun_198998_cc</title>
    <desc>Created with Sketch.</desc>
    <defs></defs>
    <g id="Page-1" stroke="none" stroke-width="1" fill="none" fill-rule="evenodd">
        <g id="Desktop" transform="translate(-64.000000, -56.000000)">
            <g id="noun_198998_cc" transform="translate(64.000000, 56.000000)">
                <g id="Group">
                    <g id="Yelp_trademark_RGB">
                        <path d="M111.013326,31.3139362 L110.809884,31.2480319 C110.809884,31.2480319 113.66686,30.6448511 114.942767,27.8536489 C115.691233,26.2160851 115.742721,24.3444043 115.026279,22.6917766 C113.806884,19.8798617 112.021744,17.4250851 109.719209,15.3946064 C108.57893,14.3884681 107.112767,13.8411489 105.591977,13.8348723 C101.891721,13.8185532 100.286163,16.7679255 100.286163,16.7679255 L100.286163,6.58226596 C100.286163,3.13641489 97.5353023,0.35337234 94.0435116,0.333287234 C92.5704419,0.32512766 89.8076512,0.822861702 87.9816977,1.31180851 C86.157,1.80012766 84.3731163,2.45728723 82.6796512,3.26445745 C81.1142791,4.01074468 79.9212558,5.38908511 79.4063721,7.04610638 C78.8908605,8.7056383 79.0936744,10.5208298 79.9626977,12.0259574 L85.0575349,20.8470851 C85.0575349,20.8470851 83.8331163,20.1196277 82.1252093,20.1196277 C79.4371395,20.1196277 77.0561163,21.8287447 76.2015349,24.3720213 C76.1387442,24.5590638 76.0784651,24.746734 76.0206977,24.9350319 C75.208186,24.1529681 74.2255116,23.4512447 73.028093,22.8825851 C71.3986744,22.1086809 69.5746047,21.7000745 67.7524186,21.7000745 C66.3616047,21.7000745 65.0009302,21.9360745 63.7356977,22.3905 C62.7938372,21.8946489 61.7238837,21.6178511 60.5980465,21.6178511 C59.0025349,21.6178511 57.5351163,22.1777234 56.3810233,23.1097979 L56.3810233,21.8795851 C56.3810233,18.173883 53.365186,15.159234 49.6586512,15.159234 C45.9514884,15.159234 42.9356512,18.173883 42.9356512,21.8795851 L42.9356512,25.5884255 C40.4026744,22.9359362 37.0257907,21.8475745 33.9773023,21.8475745 C31.6917209,21.8475745 28.6526512,22.5907234 26.0964419,24.693383 C25.2393488,23.4964362 24.0224651,22.6145745 22.592093,22.1720745 C21.9396977,21.9699681 21.2640698,21.8676596 20.5834186,21.8676596 C17.5914419,21.8676596 14.9856279,23.7889255 14.100907,26.6472872 L13.8152093,27.5705745 L12.8909302,25.6781809 C11.6464186,22.9622979 7.80237209,20.6355638 3.81453488,22.5562021 C2.18072093,23.3426596 0.962581395,24.7322979 0.372976744,26.4464362 C-0.217255814,28.1599468 -0.104232558,30.0008723 0.691325581,31.6296489 L7.12611628,44.8092447 C5.2197907,45.5530213 3.80386047,47.0851383 3.21111628,49.1633191 C2.64160465,51.1617872 3.00265116,53.2418511 4.20195349,54.8706277 C5.14318605,56.1491702 6.99927907,57.6913298 10.4904419,57.7754362 C10.6172791,57.7785745 10.7422326,57.7804574 10.8665581,57.7804574 C15.7648605,57.7798298 19.3489535,55.3589468 20.6995814,51.1379362 C21.2552791,49.4012021 21.8995116,47.3575426 22.5594419,45.2454681 C22.68,45.514734 22.8074651,45.7783511 22.9424651,46.0356915 C25.0635349,50.0552234 28.9377209,52.2689787 33.851093,52.2689787 C38.481907,52.2689787 41.7313256,50.7061064 43.7406279,48.673117 C44.8777674,50.7757766 47.1036977,52.2080957 49.6586512,52.2080957 C51.2541628,52.2080957 52.7209535,51.6482234 53.8750465,50.7161489 L53.8750465,51.9463617 C53.8750465,55.6520638 56.8908837,58.6667128 60.5980465,58.6667128 C64.246186,58.6667128 67.2249767,55.7468404 67.3185349,52.1221064 C67.3524419,52.1221064 72.6042558,52.419617 76.0627674,48.734 C76.4194186,48.3536383 77.0536047,47.697734 77.7022326,46.6030957 C78.5260465,47.0568936 79.4716744,47.3148617 80.4788372,47.3148617 C81.2932326,47.3148617 82.0686977,47.1453936 82.7713256,46.8403511 C83.1581163,47.3336915 83.6202558,47.7724255 84.1483256,48.1352128 C86.6386047,49.8449574 89.525093,51.0124043 92.4963488,51.5113936 C92.839186,51.5691383 93.1883023,51.5980106 93.534907,51.5980106 C96.9186977,51.5980106 99.6620233,48.9492872 99.7794419,45.5674574 L99.7869767,45.3515426 L99.9012558,45.5348191 C101.050953,47.3738617 103.033256,48.4716383 105.204558,48.4716383 C106.651884,48.4716383 108.064674,47.9638617 109.182349,47.0418298 C111.505605,45.1255851 113.421349,42.6720638 114.723628,39.9455106 C115.498465,38.322383 115.535512,36.4437979 114.825349,34.7911702 C114.114558,33.1372872 112.725628,31.8700426 111.013326,31.3139362" id="Fill-1" fill="#FFFFFF"></path>
                        <path d="M80.1975349,41.7054681 L80.46,41.7054681 C80.6734884,41.7054681 80.8725349,41.6941702 80.8725349,41.4537766 C80.8725349,41.2416277 80.6910698,41.2158936 80.5265581,41.2158936 L80.1975349,41.2158936 L80.1975349,41.7054681 Z M79.9834186,41.0244574 L80.5453953,41.0244574 C80.9114651,41.0244574 81.0841395,41.1594043 81.0841395,41.4650745 C81.0841395,41.7374787 80.9083256,41.8542234 80.6791395,41.8793298 L81.1205581,42.5546915 L80.8894884,42.5546915 L80.4713023,41.8962766 L80.1975349,41.8962766 L80.1975349,42.5546915 L79.9834186,42.5546915 L79.9834186,41.0244574 Z M80.4782093,42.9080638 C81.0992093,42.9080638 81.5965116,42.4203723 81.5965116,41.773883 C81.5965116,41.1399468 81.0992093,40.6522553 80.4782093,40.6522553 C79.8565814,40.6522553 79.3592791,41.1399468 79.3592791,41.7870638 C79.3592791,42.4203723 79.8565814,42.9080638 80.4782093,42.9080638 Z M80.4782093,40.4608191 C81.202186,40.4608191 81.81,41.0282234 81.81,41.773883 C81.81,42.5327234 81.202186,43.1001277 80.4782093,43.1001277 C79.7536047,43.1001277 79.1470465,42.5327234 79.1470465,41.7870638 C79.1470465,41.0282234 79.7536047,40.4608191 80.4782093,40.4608191 L80.4782093,40.4608191 Z" id="Fill-2" fill="#050505"></path>
                        <path d="M52.0315116,45.4877447 C52.0315116,46.7976702 50.969093,47.8602979 49.6586512,47.8602979 C48.3475814,47.8602979 47.2851628,46.7976702 47.2851628,45.4877447 L47.2851628,21.8795851 C47.2851628,20.5690319 48.3475814,19.5070319 49.6586512,19.5070319 C50.969093,19.5070319 52.0315116,20.5690319 52.0315116,21.8795851 L52.0315116,45.4877447" id="Fill-3" fill="#050505"></path>
                        <path d="M30.4541163,34.6430426 C30.6123488,31.3654043 33.0957209,30.8268723 34.2121395,30.8268723 C35.3348372,30.8268723 37.8276279,31.3723085 37.9601163,34.6982766 C37.9601163,34.8746489 37.8659302,34.9782128 37.7623256,34.9782128 L30.6606977,34.9782128 C30.5457907,34.9782128 30.442186,34.8627234 30.4541163,34.6430426 Z M31.4863953,38.882883 L40.0121163,38.8916702 C40.0711395,38.8916702 40.1295349,38.8872766 40.1885581,38.882883 C41.3715349,38.7937553 42.4929767,37.8127234 42.4973721,36.2416915 C42.4973721,36.2385532 42.498,36.2354149 42.498,36.2329043 C42.4961163,36.1914787 42.4917209,36.1531915 42.4898372,36.1123936 C42.0666279,27.4494362 36.5014884,26.1953723 33.9773023,26.1953723 C31.3532791,26.1953723 25.4095116,27.7438085 25.4095116,37.3758723 C25.4547209,40.9980957 26.230814,47.9211809 33.851093,47.9211809 C40.4334419,47.9211809 41.9071395,44.1207021 41.9071395,43.1515957 C41.9071395,41.7211596 40.7153721,40.5085213 39.3697674,40.9648298 C38.2778372,41.3351489 36.7802791,43.5093617 34.3672326,43.5093617 C30.9143721,43.5093617 30.4666744,40.3534894 30.4666744,39.681266 C30.4666744,39.1264149 30.7567674,38.9105 31.4863953,38.882883 L31.4863953,38.882883 Z" id="Fill-4" fill="#050505"></path>
                        <path d="M12.015,44.9096702 L4.60004651,29.7221915 C4.00918605,28.5126915 4.51151163,27.0540106 5.72148837,26.463383 C6.93209302,25.8727553 8.39134884,26.374883 8.9822093,27.584383 L14.7231628,39.3435851 L18.2557674,27.932734 C18.6538605,26.6472872 20.0189302,25.9273617 21.3055116,26.3252979 C22.592093,26.723234 23.3123023,28.0883936 22.9135814,29.3738404 C22.9135814,29.3738404 18.9433256,42.3550957 16.5566512,49.8135745 C15.7673721,52.2809043 13.6977907,53.5048404 10.597186,53.4288936 C7.52986047,53.3548298 7.05453488,51.5471702 7.39423256,50.354617 C7.76846512,49.0434362 8.86290698,48.647383 9.93474419,48.6530319 C12.7056977,48.6674681 13.0585814,46.9891064 12.015,44.9096702" id="Fill-5" fill="#050505"></path>
                        <path d="M70.7770465,37.8585426 C70.7770465,39.7339894 70.7770465,43.1001277 67.3662558,43.1001277 C63.9460465,43.1001277 63.9554651,39.7339894 63.9554651,37.8585426 L63.9554651,36.1456596 C63.9554651,34.2702128 63.9554651,30.9040745 67.3662558,30.9040745 C70.7864651,30.9040745 70.7770465,34.2702128 70.7770465,36.1456596 L70.7770465,37.8585426 Z M75.478186,36.0571596 C75.478186,32.9439681 75.0951628,28.677766 71.1625814,26.8098511 C68.944186,25.7566383 66.210907,25.7754681 64.1099302,26.9893617 C63.6886047,27.2328936 63.2710465,27.5021596 62.9018372,27.7777021 C62.6500465,26.7382979 61.715093,25.9656489 60.5980465,25.9656489 C59.2876047,25.9656489 58.2245581,27.0276489 58.2245581,28.3382021 L58.2245581,51.9463617 C58.2245581,53.2569149 59.2876047,54.3189149 60.5980465,54.3189149 C61.9084884,54.3189149 62.9715349,53.2569149 62.9715349,51.9463617 L62.9715349,45.750734 C62.9715349,45.750734 64.5657907,47.7046383 67.1037907,47.7705426 C76.1180233,48.0052872 75.5271628,38.2056383 75.478186,36.0571596 L75.478186,36.0571596 Z" id="Fill-6" fill="#050505"></path>
                        <path d="M82.957814,24.6607447 L91.2455581,28.7003617 C92.839186,29.4774043 92.5930465,31.8210851 90.8719535,32.2497766 L81.9261628,34.4798511 C80.8103721,34.7579043 79.7083953,33.9883936 79.5765349,32.8460532 C79.2952326,30.4032021 79.5733953,27.9911064 80.3243721,25.757266 C80.689186,24.6726702 81.9286744,24.158617 82.957814,24.6607447" id="Fill-7" fill="#D32323"></path>
                        <path d="M86.2756744,41.7142553 L92.4442326,34.865234 C93.6309767,33.5477766 95.8167209,34.430266 95.7545581,36.2021489 L95.4330698,45.4155638 C95.3928837,46.5641809 94.3499302,47.4140319 93.2165581,47.2232234 C90.8330233,46.8234043 88.5788372,45.9026277 86.6103488,44.5512766 C85.6647209,43.9016489 85.5083721,42.566617 86.2756744,41.7142553" id="Fill-8" fill="#D32323"></path>
                        <path d="M100.901512,32.6000106 L109.668977,35.4483298 C110.760279,35.8029574 111.292744,37.0375638 110.797953,38.0725745 C109.769442,40.2267021 108.277535,42.1511064 106.413907,43.6888723 C105.527302,44.4200957 104.199279,44.2054362 103.590209,43.2306809 L98.7032093,35.4125532 C97.7632326,33.9093085 99.2143256,32.0526915 100.901512,32.6000106" id="Fill-9" fill="#D32323"></path>
                        <path d="M109.817163,27.0094468 L100.954256,29.5495851 C99.2494884,30.0379043 97.8643256,28.1317021 98.8557907,26.6623511 L104.012163,19.0212234 C104.652628,18.0722021 105.983163,17.8977128 106.84214,18.6546702 C108.60907,20.2137766 110.057023,22.1639149 111.034674,24.4203511 C111.492419,25.4754468 110.922907,26.6924787 109.817163,27.0094468" id="Fill-10" fill="#D32323"></path>
                        <path d="M89.1081628,5.51147872 C87.5126512,5.93828723 85.9906047,6.50318085 84.5520698,7.18921277 C83.5536977,7.66497872 83.1763256,8.89393617 83.7295116,9.85174468 L92.3921163,24.8496702 C93.3634884,26.5324255 95.9366512,25.8432553 95.9366512,23.9006489 L95.9366512,6.58226596 C95.9366512,5.47632979 94.9954186,4.60011702 93.892186,4.6873617 C92.3035814,4.81226596 90.7030465,5.08404255 89.1081628,5.51147872" id="Fill-11" fill="#D32323"></path>
                    </g>
                </g>
                <path d="M157.839111,9.543118 C158.232181,10.4657776 158.065158,10.514735 158.379111,11.4681499 C159.359274,14.4470223 161.210344,16.684001 163.847553,18.3096393 C165.589995,19.3848201 167.341855,20.4461925 169.112553,21.4780648 C169.727902,21.8383414 169.798855,22.1038414 169.186646,22.5362989 C167.207483,23.941001 165.061297,25.0042563 162.766925,25.7831818 C162.187995,25.9802669 161.81439,25.7907137 161.511111,25.2954903 C160.887599,24.2849584 160.270367,23.2725435 159.605413,22.2921393 C159.373088,21.9500648 158.814251,21.2828627 158.671716,21.1039797 C158.000483,20.2666818 157.41653,20.4374052 157.226274,20.5510116 C157.081227,20.6382563 157.631902,20.9508308 157.822785,21.2364159 C157.920739,21.3864265 157.93832,21.4768095 157.935809,21.5345542 C157.91446,21.7121818 157.792018,21.6494159 157.792018,21.6494159 C157.572251,21.3958414 157.397065,21.2012669 157.206809,21.1083733 C156.870879,20.9370223 156.570111,21.0104584 156.448925,21.0832669 C156.301995,21.169884 156.862088,21.4460542 157.082483,21.7617669 C157.154692,21.8640754 157.199902,21.8847882 157.226902,21.9864691 C157.323599,22.3367031 157.004623,22.1207882 157.004623,22.1207882 C156.389902,21.4033733 155.875646,21.4228308 155.687902,21.5351818 C155.540344,21.6230542 156.173902,22.0586499 156.358506,22.3486286 C156.389274,22.3969584 156.408739,22.4402669 156.433227,22.491735 C156.490995,22.7233414 156.381739,22.7930116 156.283785,22.6881925 C155.666553,22.0165967 155.161716,22.0567669 154.970204,22.169118 C154.82453,22.257618 155.437995,22.7365223 155.642692,23.0139478 C155.758855,23.1746286 155.778948,23.2242137 155.819762,23.3466074 C155.853669,23.4903414 155.744413,23.4595861 155.718041,23.4382457 C155.542855,23.3032989 155.456832,23.2449265 155.321832,23.1645861 C154.955134,22.9474159 154.625483,22.9850754 154.486088,23.0672989 C154.340413,23.1551712 154.992809,23.7194372 155.235809,24.027618 C155.291065,24.0985435 155.350716,24.1864159 155.412251,24.2824478 C155.503297,24.4613308 155.615692,24.6364478 155.719925,24.8121925 C155.804692,24.9647137 155.87439,25.0990329 155.920227,25.181884 C156.073437,25.5296074 156.168879,25.9244052 156.34846,26.2520435 C157.280274,27.9580223 157.866739,28.5731286 159.487367,29.7135861 C159.781227,29.9175754 161.836995,30.812618 162.734274,30.8314478 C164.30153,30.9707882 166.187134,30.8709903 167.046739,30.7529903 C168.245413,30.5904265 169.432158,30.3399903 170.62832,30.1585967 C170.956088,30.1071286 171.322158,29.9772031 171.405669,30.5672031 C171.58839,31.8614372 172.157902,33.0257457 172.847972,34.1115967 C173.404925,34.9859265 173.225972,35.4190116 172.247065,35.6663095 C171.806902,35.7780329 171.384948,35.9970861 170.97932,36.2180223 C169.390716,37.0892137 167.847948,38.6652669 167.096344,39.8973627 C166.233599,41.3045754 165.472576,43.5905116 165.360181,44.2106393 C165.247158,44.8339052 165.292367,48.422235 165.308692,48.8063627 C165.336948,49.4145648 165.510879,49.6932457 165.183739,49.871501 C164.902437,50.0271606 164.63432,49.8012031 164.384413,49.6687669 C163.654785,49.279618 162.593623,48.7988308 161.803716,48.5389797 L161.610948,48.4680542 C161.147553,48.2904265 160.88132,48.3575861 160.420437,48.2383308 C159.501181,47.9954265 159.001995,48.3707669 158.91032,48.5709903 C158.838739,48.7279052 159.474181,48.6707882 159.798181,48.7988308 C159.965832,48.866618 160.030506,48.9325223 160.061902,48.9795967 C160.146669,49.1415329 160.009785,49.1572244 160.009785,49.1572244 C159.682018,49.0724903 159.423948,49.0147457 159.213599,49.0448733 C158.834344,49.0969691 158.62839,49.3279478 158.570623,49.4578733 C158.497785,49.6141606 159.121297,49.5212669 159.485483,49.6574691 C159.60353,49.7001499 159.652506,49.692618 159.734134,49.7616606 C160.016692,49.9964052 159.626134,50.0001712 159.626134,50.0001712 C158.704995,49.7572669 158.290576,50.0673308 158.200158,50.2700648 C158.127948,50.4269797 158.903413,50.4244691 159.223018,50.5587882 C159.275762,50.579501 159.31846,50.6083733 159.366809,50.632852 C159.547646,50.7935329 159.499297,50.9152989 159.356762,50.8814052 C158.45446,50.6786712 158.062646,51.0031712 157.970344,51.2046499 C157.898762,51.3596818 158.683646,51.4067563 159.010158,51.5184797 C159.199158,51.5856393 159.244367,51.6189052 159.347344,51.6929691 C159.455344,51.7921393 159.351111,51.8310542 159.316576,51.8291712 C159.094925,51.816618 158.988181,51.8191286 158.831832,51.8297989 C158.404227,51.8611818 158.151181,52.078352 158.082739,52.2283627 C158.012413,52.3827669 158.876413,52.4775435 159.255041,52.5924052 C159.660669,52.7210754 160.856832,53.2652563 160.856832,53.2652563 C161.20846,53.4642244 162.565995,53.7943733 163.957437,54.3950435 C164.572785,54.6599159 165.169297,54.9662137 165.780251,55.236735 C166.504855,55.5555861 167.235111,55.6083095 168.058297,55.5637457 C168.844437,55.5204372 169.334204,55.1162244 169.567158,54.4207776 C169.847832,53.5753201 170.041855,52.7041286 170.299297,51.8492563 C170.849972,50.0215116 171.736576,48.4360435 173.08532,47.0106286 C174.027181,46.0170435 175.139832,45.3636499 176.296437,44.710884 C176.738483,44.4617031 176.94946,44.6845223 177.176134,44.9782669 C178.922344,47.2202669 180.661018,49.4679159 182.414134,51.7036393 C182.802181,52.1976074 182.444274,52.3852776 182.134088,52.5346606 C181.865972,52.6545435 181.552646,52.7355116 181.339785,52.7499478 C180.844367,52.7794478 179.956506,52.906235 179.48746,52.9872031 C178.548739,53.1503946 178.250483,53.6964584 178.250483,53.9192776 C178.250483,54.0906286 178.805553,53.7742882 179.153413,53.7560861 C179.333623,53.7479265 179.417762,53.7805648 179.468623,53.8094372 C179.612413,53.9230435 179.495623,53.9952244 179.495623,53.9952244 C179.160948,54.0542244 178.903506,54.1082031 178.723925,54.2224372 C178.399297,54.4251712 178.308251,54.7233095 178.308251,54.8657882 C178.308251,55.0365116 178.836948,54.6944372 179.224995,54.6674478 C179.350576,54.6555223 179.464855,54.6417137 179.495623,54.6555223 C179.820251,54.827501 179.495623,54.9191393 179.495623,54.9191393 C178.55753,55.0823308 178.308251,55.5361286 178.308251,55.7570648 C178.308251,55.9290435 179.014646,55.6064265 179.360623,55.5970116 C179.417134,55.5932457 179.467995,55.6001499 179.523251,55.6026606 C179.75432,55.6742137 179.758716,55.8053946 179.616181,55.8348946 C178.712623,56.0244478 178.489088,56.481384 178.489088,56.7029478 C178.489088,56.8749265 179.221855,56.591852 179.566576,56.5592137 C179.765623,56.5422669 179.819623,56.5516818 179.945832,56.5774159 C180.088995,56.6238627 180.007367,56.6991818 179.972204,56.713618 C179.765623,56.7939584 179.669553,56.8397776 179.533297,56.9138414 C179.154669,57.1190861 179.017158,57.423501 179.017158,57.5873201 C179.017158,57.7586712 179.905646,57.4542563 180.254134,57.4435861 C180.723181,57.4291499 181.073553,57.5797882 181.638041,57.4718308 C182.223251,57.3582244 183.232297,56.890618 183.92739,56.5830648 C185.305646,55.8392882 186.714041,54.8394265 187.417925,53.9199052 C187.959809,53.2075116 188.258692,52.6940861 188.539367,51.7544797 C188.659925,51.3477563 188.708902,50.6202989 188.646739,50.1589691 C188.349111,47.9006499 187.073204,46.0302244 187.534716,42.758235 C187.697344,41.607735 187.375227,40.750352 187.620111,40.5068201 C188.592111,39.5339478 188.710158,38.248501 187.836111,37.394884 C187.701111,37.2649584 187.169274,36.9561499 186.808855,36.4759903 C186.589716,36.1916606 186.577158,35.6355542 186.516251,35.2721393 C186.155204,33.0790967 185.267344,31.0279052 184.560948,28.9026499 C184.27839,28.0527989 184.03539,27.1276286 183.909809,26.2319584 C183.617204,24.1355754 184.643204,22.2312563 185.343948,20.3476499 C186.003251,18.5763946 186.451576,16.916235 185.320716,14.9108627 C184.753716,13.905352 185.585065,13.2149265 186.013297,12.4247031 C187.16739,10.2963095 187.046832,8.06435204 186.660669,5.79850098 C186.529437,5.01706481 186.514995,4.99760736 186.818902,4.58460736 C187.388413,3.82200098 187.269111,3.01985204 186.698344,2.29992651 C186.118158,1.56870311 185.348344,1.3810329 184.478065,1.69800098 C184.196762,1.79717119 183.995832,1.94655417 183.648599,1.78210736 C182.370181,1.18959673 180.973716,1.18520311 179.613041,1.34400098 C177.088227,1.63774566 174.746134,2.89620311 172.15539,2.90938396 C171.582111,2.91126694 171.633599,3.25585204 171.673158,3.62868183 C171.794344,4.72834141 172.296041,5.66480949 172.885646,6.58307545 C173.195204,7.06449034 173.487181,7.24337332 174.092483,7.16993715 C175.072646,7.05068183 176.211669,7.13478822 177.070018,8.19678822 C174.746134,7.89488396 172.282227,8.47546907 170.58939,6.40105417 C170.471344,7.76056481 171.196576,8.363118 172.231367,8.72904353 C173.425018,9.14957545 174.564041,9.17530949 175.84246,9.40691587 C176.222972,9.47595843 177.252111,9.55629885 177.252111,9.61090524 C177.252111,9.80108609 175.345158,9.72890524 174.667646,9.87326694 C174.456669,9.91971375 174.022785,9.93854353 173.834413,10.0421074 C173.507274,10.2260116 173.203995,10.4814691 173.279972,10.8806606 C173.350925,11.2497244 173.749018,11.2804797 174.055437,11.346384 C174.719762,11.4957669 175.387855,11.6300861 176.059716,11.7499691 C176.506785,11.8309372 176.789972,11.9414052 176.332227,12.3958308 C175.172483,13.5457031 173.680576,14.2386393 172.407181,15.2303414 C172.297925,15.3150754 172.056809,15.2943627 171.902344,15.2428946 C169.790692,14.5480754 167.599925,14.1237776 165.514018,13.3341818 C163.657925,12.6293201 162.498181,11.5397031 162.040437,9.58077758 C161.867762,8.85143715 161.947506,8.73469247 161.660553,8.04112864 C161.541251,7.75240524 161.509855,7.62310736 161.34032,7.37267119 C161.126204,6.99921375 160.792158,6.50524566 160.57553,6.19204353 C160.103972,5.51479885 159.565227,5.4783946 159.388785,5.55936268 C159.254413,5.62150098 159.707134,5.94474566 159.84653,6.21150098 C159.918739,6.34895843 159.923134,6.43055417 159.918739,6.4782563 C159.88232,6.6320329 159.782483,6.56801162 159.782483,6.56801162 C159.614832,6.32636268 159.478576,6.14308609 159.324111,6.04391587 C159.044692,5.86377758 158.777832,5.90018183 158.664181,5.95290524 C158.530437,6.01567119 158.99132,6.3043946 159.155832,6.60064992 C159.209204,6.69479885 159.245623,6.7173946 159.260692,6.80777758 C159.313437,7.124118 159.054739,6.90443715 159.054739,6.90443715 C158.585065,6.22782013 158.138623,6.19706481 157.960925,6.27677758 C157.827181,6.34017119 158.339553,6.77576694 158.473925,7.0450329 C158.49653,7.08896907 158.509088,7.13227758 158.525413,7.17621375 C158.554925,7.38522439 158.453204,7.43480949 158.377855,7.33438396 C157.900646,6.69354353 157.457344,6.68350098 157.282158,6.76509673 C157.147158,6.829118 157.639437,7.30174566 157.790134,7.56222439 C157.878041,7.70784141 157.889344,7.75742651 157.915088,7.86412864 C157.92953,7.99342651 157.840367,7.95764992 157.819018,7.93630949 C157.677739,7.802618 157.608669,7.743618 157.498785,7.66264992 C157.198018,7.44171375 156.909809,7.44359673 156.781088,7.50259673 C156.644832,7.5634797 157.160972,8.11330949 157.345576,8.40517119 C157.436623,8.55204353 157.532065,8.76482013 157.613065,8.96567119 L157.612437,8.96629885 C157.646344,9.03785204 157.672716,9.11379885 157.700972,9.18974566 C157.766902,9.36109673 157.813995,9.49416056 157.827181,9.52177758 L157.839111,9.543118 Z M179.579762,4.99070311 C179.275855,5.1739797 179.02532,5.10556481 178.895344,4.86642651 C178.459576,4.07055417 177.656483,3.56340524 176.998437,4.84194779 C176.926227,4.98505417 176.639274,5.07355417 176.499251,5.04028822 C176.321553,4.99760736 176.290158,4.77667119 176.359855,4.5965329 C176.639902,3.8527563 177.010367,3.21442651 177.928995,3.24204353 C178.844483,3.27342651 179.621832,4.2004797 179.705972,4.63984141 C179.72732,4.75595843 179.660762,4.94237332 179.579762,4.99070311 Z M183.779832,4.8557563 C183.583925,4.89843715 183.362902,4.79801162 183.155065,4.76286268 C183.197762,4.55636268 183.187088,4.30969247 183.299483,4.14838396 C183.802437,3.42155417 184.568483,3.29413928 185.53232,3.2395329 C185.217739,4.24316056 184.601134,4.68063928 183.779832,4.8557563 Z" id="Shape" fill="#000000"></path>
                <g id="Group-3" transform="translate(128.093023, 21.595745)" fill="#DEDEDE">
                    <rect id="Rectangle-5" x="0" y="7.27659574" width="14.4418605" height="1.88297872"></rect>
                    <rect id="Rectangle-5-Copy" transform="translate(7.220930, 8.218085) rotate(90.000000) translate(-7.220930, -8.218085) " x="0" y="7.27659574" width="14.4418605" height="1.88297872"></rect>
                </g>
            </g>
        </g>
    </g>
</svg>